G04 FreePCB version 1.359*
G04 Y:\Documents\R2D2 Build\PCB Files\Charging Bay Indicators\RSeries CBI v3 CAM\top_copper.grb*
G04 top copper layer *
G04 Scale: 100 percent, Rotated: No, Reflected: No *
%FSLAX24Y24*%
%MOIN*%
%LN top copper *%
G04 Rounded Rectangle Macro, params: W/2, H/2, R *
%AMRNDREC*
21,1,$1+$1,$2+$2-$3-$3,0,0,0*
21,1,$1+$1-$3-$3,$2+$2,0,0,0*
1,1,$3+$3,$1-$3,$2-$3*
1,1,$3+$3,$3-$1,$2-$3*
1,1,$3+$3,$1-$3,$3-$2*
1,1,$3+$3,$3-$1,$3-$2*%
G04 Rectangular Thermal Macro, params: W/2, H/2, T/2 *
%AMRECTHERM*
$4=$3/2*
21,1,$1-$3,$2-$3,0-$1/2-$4,0-$2/2-$4,0*
21,1,$1-$3,$2-$3,0-$1/2-$4,$2/2+$4,0*
21,1,$1-$3,$2-$3,$1/2+$4,0-$2/2-$4,0*
21,1,$1-$3,$2-$3,$1/2+$4,$2/2+$4,0*%
%ADD10C,0.005000*%
%ADD11R,0.055000X0.055000*%
%ADD12C,0.055000*%
%ADD13C,0.050000*%
%ADD14R,0.060000X0.060000*%
%ADD15C,0.060000*%
%ADD16C,0.075000*%
%ADD17C,0.010000*%
G90*
G70D02*

G04 Step and Repeat for panelization *

G04 ----------------------- Draw board outline (positive)*
%LPD*%
G54D10*
G01X20600Y37800D02*
G01X37200Y37800D01*
G04 end of side 1*
G01X37200Y32800D01*
G04 end of side 2*
G01X31200Y32800D01*
G04 end of side 3*
G01X31200Y17000D01*
G04 end of side 4*
G01X20600Y17000D01*
G04 end of side 5*
G01X20600Y37800D01*

G04 -------------- Draw Parts, Pads, Traces, Vias and Text (positive)*
%LPD*%
G04 Draw part IC1*
G54D11*
G01X33000Y33700D03*
G54D12*
G01X32000Y33700D03*
G01X31000Y33700D03*
G01X30000Y33700D03*
G01X29000Y33700D03*
G01X28000Y33700D03*
G01X27000Y33700D03*
G01X26000Y33700D03*
G01X25000Y33700D03*
G01X24000Y33700D03*
G01X23000Y33700D03*
G01X22000Y33700D03*
G01X22000Y36700D03*
G01X23000Y36700D03*
G01X24000Y36700D03*
G01X25000Y36700D03*
G01X26000Y36700D03*
G01X27000Y36700D03*
G01X28000Y36700D03*
G01X29000Y36700D03*
G01X30000Y36700D03*
G01X31000Y36700D03*
G01X32000Y36700D03*
G01X33000Y36700D03*
G04 Draw part L1*
G54D13*
G01X22210Y30700D03*
G01X21500Y29990D03*
G04 Draw part L2*
G01X24310Y30700D03*
G01X23600Y29990D03*
G04 Draw part L3*
G01X26410Y30700D03*
G01X25700Y29990D03*
G04 Draw part L4*
G01X28510Y30700D03*
G01X27800Y29990D03*
G04 Draw part L5*
G01X30610Y30700D03*
G01X29900Y29990D03*
G04 Draw part L6*
G01X22210Y28600D03*
G01X21500Y27890D03*
G04 Draw part L7*
G01X24310Y28600D03*
G01X23600Y27890D03*
G04 Draw part L8*
G01X26410Y28600D03*
G01X25700Y27890D03*
G04 Draw part L9*
G01X28510Y28600D03*
G01X27800Y27890D03*
G04 Draw part L10*
G01X30610Y28600D03*
G01X29900Y27890D03*
G04 Draw part L11*
G01X22210Y26500D03*
G01X21500Y25790D03*
G04 Draw part L12*
G01X24310Y26500D03*
G01X23600Y25790D03*
G04 Draw part L13*
G01X26410Y26500D03*
G01X25700Y25790D03*
G04 Draw part L14*
G01X28510Y26500D03*
G01X27800Y25790D03*
G04 Draw part L15*
G01X30610Y26500D03*
G01X29900Y25790D03*
G04 Draw part L16*
G01X22210Y24500D03*
G01X21500Y23790D03*
G04 Draw part L17*
G01X24310Y24500D03*
G01X23600Y23790D03*
G04 Draw part L18*
G01X26410Y24500D03*
G01X25700Y23790D03*
G04 Draw part L19*
G01X28510Y24500D03*
G01X27800Y23790D03*
G04 Draw part L20*
G01X30610Y24500D03*
G01X29900Y23790D03*
G04 Draw part H1*
G54D14*
G01X25400Y19600D03*
G54D15*
G01X25400Y20600D03*
G01X24400Y19600D03*
G01X24400Y20600D03*
G01X23400Y19600D03*
G01X23400Y20600D03*
G01X22400Y19600D03*
G01X22400Y20600D03*
G01X21400Y19600D03*
G01X21400Y20600D03*
G04 Draw part C1*
G54D16*
G01X23500Y22100D03*
G01X21500Y22100D03*
G04 Draw part C2*
G01X26900Y22100D03*
G01X24900Y22100D03*
G04 Draw part R1*
G01X30200Y18200D03*
G01X30200Y22200D03*
G04 Draw part SW1*
G54D14*
G01X28600Y18200D03*
G54D15*
G01X27600Y18200D03*
G04 Draw part LED*
G54D14*
G01X36300Y36200D03*
G54D15*
G01X35300Y36200D03*
G01X36300Y35200D03*
G01X35300Y35200D03*
G01X36300Y34200D03*
G01X35300Y34200D03*

G04 Draw traces*
G54D17*
G01X24400Y19600D02*
G01X24400Y20600D01*
G01X27600Y18200D02*
G01X25800Y18200D01*
G01X25800Y18200D02*
G01X24400Y19600D01*
G01X22210Y28600D02*
G01X22210Y30700D01*
G01X22210Y26500D02*
G01X22210Y28600D01*
G01X22210Y24500D02*
G01X22210Y26500D01*
G01X26900Y22100D02*
G01X26900Y30934D01*
G01X26900Y30934D02*
G01X26500Y31334D01*
G01X26500Y31334D02*
G01X26500Y36865D01*
G01X26500Y36865D02*
G01X26820Y37186D01*
G01X26820Y37186D02*
G01X27513Y37186D01*
G01X27513Y37186D02*
G01X28000Y36700D01*
G01X28600Y18200D02*
G01X28600Y20400D01*
G01X28600Y20400D02*
G01X26900Y22100D01*
G01X23400Y19600D02*
G01X23400Y20100D01*
G01X23400Y20100D02*
G01X22228Y20100D01*
G01X22228Y20100D02*
G01X21900Y20428D01*
G01X21900Y20428D02*
G01X21900Y20925D01*
G01X21900Y20925D02*
G01X22625Y21650D01*
G01X22625Y21650D02*
G01X22625Y30908D01*
G01X22625Y30908D02*
G01X22000Y31533D01*
G01X22000Y31533D02*
G01X22000Y33700D01*
G01X23400Y20600D02*
G01X23400Y20100D01*
G01X24310Y30700D02*
G01X23500Y31510D01*
G01X23500Y31510D02*
G01X23500Y36200D01*
G01X23500Y36200D02*
G01X23000Y36700D01*
G01X24310Y28600D02*
G01X24310Y30700D01*
G01X24310Y26500D02*
G01X24310Y28600D01*
G01X24310Y24500D02*
G01X24310Y26500D01*
G01X26410Y30700D02*
G01X25500Y31610D01*
G01X25500Y31610D02*
G01X25500Y36200D01*
G01X25500Y36200D02*
G01X25000Y36700D01*
G01X26410Y28600D02*
G01X26410Y30700D01*
G01X26410Y26500D02*
G01X26410Y28600D01*
G01X26410Y24500D02*
G01X26410Y26500D01*
G01X36300Y35200D02*
G01X36300Y36200D01*
G01X36300Y34200D02*
G01X36300Y35200D01*
G01X28510Y30700D02*
G01X28510Y36210D01*
G01X28510Y36210D02*
G01X29000Y36700D01*
G01X28510Y28600D02*
G01X28510Y30700D01*
G01X28510Y26500D02*
G01X28510Y28600D01*
G01X28510Y24500D02*
G01X28510Y26500D01*
G01X30610Y30700D02*
G01X30610Y32670D01*
G01X30610Y32670D02*
G01X31570Y33631D01*
G01X31570Y33631D02*
G01X31570Y35987D01*
G01X31570Y35987D02*
G01X32000Y36417D01*
G01X32000Y36417D02*
G01X32000Y36700D01*
G01X30610Y28600D02*
G01X30610Y30700D01*
G01X30610Y26500D02*
G01X30610Y28600D01*
G01X30610Y24500D02*
G01X30610Y26500D01*
G01X35300Y36200D02*
G01X34331Y37168D01*
G01X34331Y37168D02*
G01X31867Y37168D01*
G01X31867Y37168D02*
G01X31470Y36772D01*
G01X31470Y36772D02*
G01X31470Y36312D01*
G01X31470Y36312D02*
G01X31000Y35841D01*
G01X31000Y35841D02*
G01X31000Y33700D01*
G01X24900Y22100D02*
G01X25000Y22100D01*
G01X25000Y22100D02*
G01X25400Y21700D01*
G01X25400Y21700D02*
G01X25400Y20600D01*
G01X25400Y19600D02*
G01X25400Y20600D01*
G01X25000Y33700D02*
G01X25000Y22100D01*
G01X23600Y27890D02*
G01X23025Y28464D01*
G01X23025Y28464D02*
G01X23025Y33674D01*
G01X23025Y33674D02*
G01X23000Y33700D01*
G01X27800Y25790D02*
G01X27800Y26676D01*
G01X27800Y26676D02*
G01X28209Y27085D01*
G01X28209Y27085D02*
G01X28209Y28190D01*
G01X28209Y28190D02*
G01X28101Y28298D01*
G01X28101Y28298D02*
G01X28101Y29077D01*
G01X28101Y29077D02*
G01X28209Y29185D01*
G01X28209Y29185D02*
G01X28209Y30290D01*
G01X28209Y30290D02*
G01X28000Y30500D01*
G01X28000Y30500D02*
G01X28000Y33700D01*
G01X27800Y23790D02*
G01X27168Y24421D01*
G01X27168Y24421D02*
G01X27168Y33531D01*
G01X27168Y33531D02*
G01X27000Y33700D01*
G01X22400Y20600D02*
G01X22825Y21025D01*
G01X22825Y21025D02*
G01X22825Y31132D01*
G01X22825Y31132D02*
G01X22500Y31457D01*
G01X22500Y31457D02*
G01X22500Y36200D01*
G01X22500Y36200D02*
G01X22000Y36700D01*
G01X27000Y36700D02*
G01X27449Y36250D01*
G01X27449Y36250D02*
G01X27449Y30205D01*
G01X27449Y30205D02*
G01X27399Y30155D01*
G01X27399Y30155D02*
G01X27399Y25000D01*
G01X27399Y25000D02*
G01X30200Y22200D01*

G04 Draw Text*
M00*
M02*
