G04 FreePCB version 1.359*
G04 Y:\Documents\R2D2 Build\PCB Files\Charging Bay Indicators\RSeries CBI v3 CAM\top_silk.grb*
G04 top silk layer *
G04 Scale: 100 percent, Rotated: No, Reflected: No *
%FSLAX24Y24*%
%MOIN*%
%LN top silk *%
G04 Rounded Rectangle Macro, params: W/2, H/2, R *
%AMRNDREC*
21,1,$1+$1,$2+$2-$3-$3,0,0,0*
21,1,$1+$1-$3-$3,$2+$2,0,0,0*
1,1,$3+$3,$1-$3,$2-$3*
1,1,$3+$3,$3-$1,$2-$3*
1,1,$3+$3,$1-$3,$3-$2*
1,1,$3+$3,$3-$1,$3-$2*%
G04 Rectangular Thermal Macro, params: W/2, H/2, T/2 *
%AMRECTHERM*
$4=$3/2*
21,1,$1-$3,$2-$3,0-$1/2-$4,0-$2/2-$4,0*
21,1,$1-$3,$2-$3,0-$1/2-$4,$2/2+$4,0*
21,1,$1-$3,$2-$3,$1/2+$4,0-$2/2-$4,0*
21,1,$1-$3,$2-$3,$1/2+$4,$2/2+$4,0*%
%ADD10C,0.005000*%
%ADD11C,0.007000*%
G90*
G70D02*

G04 Step and Repeat for panelization *

G04 ----------------------- Draw board outline (positive)*
%LPD*%
G54D10*
G01X20600Y37800D02*
G01X37200Y37800D01*
G04 end of side 1*
G01X37200Y32800D01*
G04 end of side 2*
G01X31200Y32800D01*
G04 end of side 3*
G01X31200Y17000D01*
G04 end of side 4*
G01X20600Y17000D01*
G04 end of side 5*
G01X20600Y37800D01*

G04 -------------- Draw Parts, Pads, Traces, Vias and Text (positive)*
%LPD*%
G04 Draw part IC1*
G04 Draw part L1*
G04 draw part outline for part L1*
G54D11*
G01X22610Y30240D02*
G01X22609Y30279D01*
G01X22606Y30318D01*
G01X22601Y30357D01*
G01X22595Y30396D01*
G01X22587Y30434D01*
G01X22577Y30472D01*
G01X22565Y30510D01*
G01X22552Y30547D01*
G01X22537Y30583D01*
G01X22520Y30618D01*
G01X22502Y30653D01*
G01X22482Y30687D01*
G01X22461Y30720D01*
G01X22438Y30752D01*
G01X22413Y30783D01*
G01X22388Y30812D01*
G01X22361Y30841D01*
G01X22332Y30868D01*
G01X22303Y30893D01*
G01X22272Y30918D01*
G01X22240Y30941D01*
G01X22207Y30962D01*
G01X22173Y30982D01*
G01X22138Y31000D01*
G01X22103Y31017D01*
G01X22067Y31032D01*
G01X22030Y31045D01*
G01X21992Y31057D01*
G01X21954Y31067D01*
G01X21916Y31075D01*
G01X21877Y31081D01*
G01X21838Y31086D01*
G01X21799Y31089D01*
G01X21760Y31090D01*
G01X21760Y29390D02*
G01X21799Y29390D01*
G01X21838Y29393D01*
G01X21877Y29398D01*
G01X21916Y29404D01*
G01X21954Y29412D01*
G01X21992Y29422D01*
G01X22030Y29434D01*
G01X22067Y29447D01*
G01X22103Y29462D01*
G01X22138Y29479D01*
G01X22173Y29497D01*
G01X22207Y29517D01*
G01X22240Y29538D01*
G01X22272Y29561D01*
G01X22303Y29586D01*
G01X22332Y29611D01*
G01X22361Y29638D01*
G01X22388Y29667D01*
G01X22413Y29696D01*
G01X22438Y29727D01*
G01X22461Y29759D01*
G01X22482Y29792D01*
G01X22502Y29826D01*
G01X22520Y29861D01*
G01X22537Y29896D01*
G01X22552Y29932D01*
G01X22565Y29969D01*
G01X22577Y30007D01*
G01X22587Y30045D01*
G01X22595Y30083D01*
G01X22601Y30122D01*
G01X22606Y30161D01*
G01X22609Y30200D01*
G01X22610Y30240D01*
G01X21760Y31090D02*
G01X21720Y31089D01*
G01X21681Y31086D01*
G01X21642Y31081D01*
G01X21603Y31075D01*
G01X21565Y31067D01*
G01X21527Y31057D01*
G01X21489Y31045D01*
G01X21452Y31032D01*
G01X21416Y31017D01*
G01X21381Y31000D01*
G01X21346Y30982D01*
G01X21312Y30962D01*
G01X21279Y30941D01*
G01X21247Y30918D01*
G01X21216Y30893D01*
G01X21187Y30868D01*
G01X21158Y30841D01*
G01X21131Y30812D01*
G01X21106Y30783D01*
G01X21081Y30752D01*
G01X21058Y30720D01*
G01X21037Y30687D01*
G01X21017Y30653D01*
G01X20999Y30618D01*
G01X20982Y30583D01*
G01X20967Y30547D01*
G01X20954Y30510D01*
G01X20942Y30472D01*
G01X20932Y30434D01*
G01X20924Y30396D01*
G01X20918Y30357D01*
G01X20913Y30318D01*
G01X20910Y30279D01*
G01X20910Y30240D01*
G01X20910Y30240D02*
G01X21760Y29390D01*
G04 draw reference designator for part L1*
G54D10*
G01X21400Y30786D02*
G01X21400Y30500D01*
G01X21563Y30500D02*
G01X21400Y30500D01*
G01X21700Y30745D02*
G01X21672Y30731D01*
G01X21740Y30786D02*
G01X21700Y30745D01*
G01X21740Y30786D02*
G01X21740Y30500D01*
G04 Draw part L2*
G04 draw part outline for part L2*
G54D11*
G01X24710Y30240D02*
G01X24709Y30279D01*
G01X24706Y30318D01*
G01X24701Y30357D01*
G01X24695Y30396D01*
G01X24687Y30434D01*
G01X24677Y30472D01*
G01X24665Y30510D01*
G01X24652Y30547D01*
G01X24637Y30583D01*
G01X24620Y30618D01*
G01X24602Y30653D01*
G01X24582Y30687D01*
G01X24561Y30720D01*
G01X24538Y30752D01*
G01X24513Y30783D01*
G01X24488Y30812D01*
G01X24461Y30841D01*
G01X24432Y30868D01*
G01X24403Y30893D01*
G01X24372Y30918D01*
G01X24340Y30941D01*
G01X24307Y30962D01*
G01X24273Y30982D01*
G01X24238Y31000D01*
G01X24203Y31017D01*
G01X24167Y31032D01*
G01X24130Y31045D01*
G01X24092Y31057D01*
G01X24054Y31067D01*
G01X24016Y31075D01*
G01X23977Y31081D01*
G01X23938Y31086D01*
G01X23899Y31089D01*
G01X23860Y31090D01*
G01X23860Y29390D02*
G01X23899Y29390D01*
G01X23938Y29393D01*
G01X23977Y29398D01*
G01X24016Y29404D01*
G01X24054Y29412D01*
G01X24092Y29422D01*
G01X24130Y29434D01*
G01X24167Y29447D01*
G01X24203Y29462D01*
G01X24238Y29479D01*
G01X24273Y29497D01*
G01X24307Y29517D01*
G01X24340Y29538D01*
G01X24372Y29561D01*
G01X24403Y29586D01*
G01X24432Y29611D01*
G01X24461Y29638D01*
G01X24488Y29667D01*
G01X24513Y29696D01*
G01X24538Y29727D01*
G01X24561Y29759D01*
G01X24582Y29792D01*
G01X24602Y29826D01*
G01X24620Y29861D01*
G01X24637Y29896D01*
G01X24652Y29932D01*
G01X24665Y29969D01*
G01X24677Y30007D01*
G01X24687Y30045D01*
G01X24695Y30083D01*
G01X24701Y30122D01*
G01X24706Y30161D01*
G01X24709Y30200D01*
G01X24710Y30240D01*
G01X23860Y31090D02*
G01X23820Y31089D01*
G01X23781Y31086D01*
G01X23742Y31081D01*
G01X23703Y31075D01*
G01X23665Y31067D01*
G01X23627Y31057D01*
G01X23589Y31045D01*
G01X23552Y31032D01*
G01X23516Y31017D01*
G01X23481Y31000D01*
G01X23446Y30982D01*
G01X23412Y30962D01*
G01X23379Y30941D01*
G01X23347Y30918D01*
G01X23316Y30893D01*
G01X23287Y30868D01*
G01X23258Y30841D01*
G01X23231Y30812D01*
G01X23206Y30783D01*
G01X23181Y30752D01*
G01X23158Y30720D01*
G01X23137Y30687D01*
G01X23117Y30653D01*
G01X23099Y30618D01*
G01X23082Y30583D01*
G01X23067Y30547D01*
G01X23054Y30510D01*
G01X23042Y30472D01*
G01X23032Y30434D01*
G01X23024Y30396D01*
G01X23018Y30357D01*
G01X23013Y30318D01*
G01X23010Y30279D01*
G01X23010Y30240D01*
G01X23010Y30240D02*
G01X23860Y29390D01*
G04 draw reference designator for part L2*
G54D10*
G01X23500Y30786D02*
G01X23500Y30500D01*
G01X23663Y30500D02*
G01X23500Y30500D01*
G01X23786Y30731D02*
G01X23786Y30718D01*
G01X23800Y30759D02*
G01X23786Y30731D01*
G01X23813Y30772D02*
G01X23800Y30759D01*
G01X23840Y30786D02*
G01X23813Y30772D01*
G01X23895Y30786D02*
G01X23840Y30786D01*
G01X23895Y30786D02*
G01X23922Y30772D01*
G01X23922Y30772D02*
G01X23936Y30759D01*
G01X23936Y30759D02*
G01X23950Y30731D01*
G01X23950Y30731D02*
G01X23950Y30704D01*
G01X23950Y30704D02*
G01X23936Y30677D01*
G01X23936Y30677D02*
G01X23909Y30636D01*
G01X23909Y30636D02*
G01X23772Y30500D01*
G01X23963Y30500D02*
G01X23772Y30500D01*
G04 Draw part L3*
G04 draw part outline for part L3*
G54D11*
G01X26810Y30240D02*
G01X26809Y30279D01*
G01X26806Y30318D01*
G01X26801Y30357D01*
G01X26795Y30396D01*
G01X26787Y30434D01*
G01X26777Y30472D01*
G01X26765Y30510D01*
G01X26752Y30547D01*
G01X26737Y30583D01*
G01X26720Y30618D01*
G01X26702Y30653D01*
G01X26682Y30687D01*
G01X26661Y30720D01*
G01X26638Y30752D01*
G01X26613Y30783D01*
G01X26588Y30812D01*
G01X26561Y30841D01*
G01X26532Y30868D01*
G01X26503Y30893D01*
G01X26472Y30918D01*
G01X26440Y30941D01*
G01X26407Y30962D01*
G01X26373Y30982D01*
G01X26338Y31000D01*
G01X26303Y31017D01*
G01X26267Y31032D01*
G01X26230Y31045D01*
G01X26192Y31057D01*
G01X26154Y31067D01*
G01X26116Y31075D01*
G01X26077Y31081D01*
G01X26038Y31086D01*
G01X25999Y31089D01*
G01X25960Y31090D01*
G01X25960Y29390D02*
G01X25999Y29390D01*
G01X26038Y29393D01*
G01X26077Y29398D01*
G01X26116Y29404D01*
G01X26154Y29412D01*
G01X26192Y29422D01*
G01X26230Y29434D01*
G01X26267Y29447D01*
G01X26303Y29462D01*
G01X26338Y29479D01*
G01X26373Y29497D01*
G01X26407Y29517D01*
G01X26440Y29538D01*
G01X26472Y29561D01*
G01X26503Y29586D01*
G01X26532Y29611D01*
G01X26561Y29638D01*
G01X26588Y29667D01*
G01X26613Y29696D01*
G01X26638Y29727D01*
G01X26661Y29759D01*
G01X26682Y29792D01*
G01X26702Y29826D01*
G01X26720Y29861D01*
G01X26737Y29896D01*
G01X26752Y29932D01*
G01X26765Y29969D01*
G01X26777Y30007D01*
G01X26787Y30045D01*
G01X26795Y30083D01*
G01X26801Y30122D01*
G01X26806Y30161D01*
G01X26809Y30200D01*
G01X26810Y30240D01*
G01X25960Y31090D02*
G01X25920Y31089D01*
G01X25881Y31086D01*
G01X25842Y31081D01*
G01X25803Y31075D01*
G01X25765Y31067D01*
G01X25727Y31057D01*
G01X25689Y31045D01*
G01X25652Y31032D01*
G01X25616Y31017D01*
G01X25581Y31000D01*
G01X25546Y30982D01*
G01X25512Y30962D01*
G01X25479Y30941D01*
G01X25447Y30918D01*
G01X25416Y30893D01*
G01X25387Y30868D01*
G01X25358Y30841D01*
G01X25331Y30812D01*
G01X25306Y30783D01*
G01X25281Y30752D01*
G01X25258Y30720D01*
G01X25237Y30687D01*
G01X25217Y30653D01*
G01X25199Y30618D01*
G01X25182Y30583D01*
G01X25167Y30547D01*
G01X25154Y30510D01*
G01X25142Y30472D01*
G01X25132Y30434D01*
G01X25124Y30396D01*
G01X25118Y30357D01*
G01X25113Y30318D01*
G01X25110Y30279D01*
G01X25110Y30240D01*
G01X25110Y30240D02*
G01X25960Y29390D01*
G04 draw reference designator for part L3*
G54D10*
G01X25600Y30786D02*
G01X25600Y30500D01*
G01X25763Y30500D02*
G01X25600Y30500D01*
G01X26050Y30786D02*
G01X25900Y30786D01*
G01X26050Y30786D02*
G01X25968Y30677D01*
G01X26009Y30677D02*
G01X25968Y30677D01*
G01X26009Y30677D02*
G01X26036Y30663D01*
G01X26036Y30663D02*
G01X26050Y30650D01*
G01X26050Y30650D02*
G01X26063Y30609D01*
G01X26063Y30609D02*
G01X26063Y30581D01*
G01X26063Y30581D02*
G01X26050Y30540D01*
G01X26050Y30540D02*
G01X26022Y30513D01*
G01X26022Y30513D02*
G01X25981Y30500D01*
G01X25940Y30500D02*
G01X25981Y30500D01*
G01X25900Y30513D02*
G01X25940Y30500D01*
G01X25886Y30527D02*
G01X25900Y30513D01*
G01X25872Y30554D02*
G01X25886Y30527D01*
G04 Draw part L4*
G04 draw part outline for part L4*
G54D11*
G01X28910Y30240D02*
G01X28909Y30279D01*
G01X28906Y30318D01*
G01X28901Y30357D01*
G01X28895Y30396D01*
G01X28887Y30434D01*
G01X28877Y30472D01*
G01X28865Y30510D01*
G01X28852Y30547D01*
G01X28837Y30583D01*
G01X28820Y30618D01*
G01X28802Y30653D01*
G01X28782Y30687D01*
G01X28761Y30720D01*
G01X28738Y30752D01*
G01X28713Y30783D01*
G01X28688Y30812D01*
G01X28661Y30841D01*
G01X28632Y30868D01*
G01X28603Y30893D01*
G01X28572Y30918D01*
G01X28540Y30941D01*
G01X28507Y30962D01*
G01X28473Y30982D01*
G01X28438Y31000D01*
G01X28403Y31017D01*
G01X28367Y31032D01*
G01X28330Y31045D01*
G01X28292Y31057D01*
G01X28254Y31067D01*
G01X28216Y31075D01*
G01X28177Y31081D01*
G01X28138Y31086D01*
G01X28099Y31089D01*
G01X28060Y31090D01*
G01X28060Y29390D02*
G01X28099Y29390D01*
G01X28138Y29393D01*
G01X28177Y29398D01*
G01X28216Y29404D01*
G01X28254Y29412D01*
G01X28292Y29422D01*
G01X28330Y29434D01*
G01X28367Y29447D01*
G01X28403Y29462D01*
G01X28438Y29479D01*
G01X28473Y29497D01*
G01X28507Y29517D01*
G01X28540Y29538D01*
G01X28572Y29561D01*
G01X28603Y29586D01*
G01X28632Y29611D01*
G01X28661Y29638D01*
G01X28688Y29667D01*
G01X28713Y29696D01*
G01X28738Y29727D01*
G01X28761Y29759D01*
G01X28782Y29792D01*
G01X28802Y29826D01*
G01X28820Y29861D01*
G01X28837Y29896D01*
G01X28852Y29932D01*
G01X28865Y29969D01*
G01X28877Y30007D01*
G01X28887Y30045D01*
G01X28895Y30083D01*
G01X28901Y30122D01*
G01X28906Y30161D01*
G01X28909Y30200D01*
G01X28910Y30240D01*
G01X28060Y31090D02*
G01X28020Y31089D01*
G01X27981Y31086D01*
G01X27942Y31081D01*
G01X27903Y31075D01*
G01X27865Y31067D01*
G01X27827Y31057D01*
G01X27789Y31045D01*
G01X27752Y31032D01*
G01X27716Y31017D01*
G01X27681Y31000D01*
G01X27646Y30982D01*
G01X27612Y30962D01*
G01X27579Y30941D01*
G01X27547Y30918D01*
G01X27516Y30893D01*
G01X27487Y30868D01*
G01X27458Y30841D01*
G01X27431Y30812D01*
G01X27406Y30783D01*
G01X27381Y30752D01*
G01X27358Y30720D01*
G01X27337Y30687D01*
G01X27317Y30653D01*
G01X27299Y30618D01*
G01X27282Y30583D01*
G01X27267Y30547D01*
G01X27254Y30510D01*
G01X27242Y30472D01*
G01X27232Y30434D01*
G01X27224Y30396D01*
G01X27218Y30357D01*
G01X27213Y30318D01*
G01X27210Y30279D01*
G01X27210Y30240D01*
G01X27210Y30240D02*
G01X28060Y29390D01*
G04 draw reference designator for part L4*
G54D10*
G01X27700Y30786D02*
G01X27700Y30500D01*
G01X27863Y30500D02*
G01X27700Y30500D01*
G01X28109Y30786D02*
G01X27972Y30595D01*
G01X28177Y30595D02*
G01X27972Y30595D01*
G01X28109Y30786D02*
G01X28109Y30500D01*
G04 Draw part L5*
G04 draw part outline for part L5*
G54D11*
G01X31010Y30240D02*
G01X31009Y30279D01*
G01X31006Y30318D01*
G01X31001Y30357D01*
G01X30995Y30396D01*
G01X30987Y30434D01*
G01X30977Y30472D01*
G01X30965Y30510D01*
G01X30952Y30547D01*
G01X30937Y30583D01*
G01X30920Y30618D01*
G01X30902Y30653D01*
G01X30882Y30687D01*
G01X30861Y30720D01*
G01X30838Y30752D01*
G01X30813Y30783D01*
G01X30788Y30812D01*
G01X30761Y30841D01*
G01X30732Y30868D01*
G01X30703Y30893D01*
G01X30672Y30918D01*
G01X30640Y30941D01*
G01X30607Y30962D01*
G01X30573Y30982D01*
G01X30538Y31000D01*
G01X30503Y31017D01*
G01X30467Y31032D01*
G01X30430Y31045D01*
G01X30392Y31057D01*
G01X30354Y31067D01*
G01X30316Y31075D01*
G01X30277Y31081D01*
G01X30238Y31086D01*
G01X30199Y31089D01*
G01X30160Y31090D01*
G01X30160Y29390D02*
G01X30199Y29390D01*
G01X30238Y29393D01*
G01X30277Y29398D01*
G01X30316Y29404D01*
G01X30354Y29412D01*
G01X30392Y29422D01*
G01X30430Y29434D01*
G01X30467Y29447D01*
G01X30503Y29462D01*
G01X30538Y29479D01*
G01X30573Y29497D01*
G01X30607Y29517D01*
G01X30640Y29538D01*
G01X30672Y29561D01*
G01X30703Y29586D01*
G01X30732Y29611D01*
G01X30761Y29638D01*
G01X30788Y29667D01*
G01X30813Y29696D01*
G01X30838Y29727D01*
G01X30861Y29759D01*
G01X30882Y29792D01*
G01X30902Y29826D01*
G01X30920Y29861D01*
G01X30937Y29896D01*
G01X30952Y29932D01*
G01X30965Y29969D01*
G01X30977Y30007D01*
G01X30987Y30045D01*
G01X30995Y30083D01*
G01X31001Y30122D01*
G01X31006Y30161D01*
G01X31009Y30200D01*
G01X31010Y30240D01*
G01X30160Y31090D02*
G01X30120Y31089D01*
G01X30081Y31086D01*
G01X30042Y31081D01*
G01X30003Y31075D01*
G01X29965Y31067D01*
G01X29927Y31057D01*
G01X29889Y31045D01*
G01X29852Y31032D01*
G01X29816Y31017D01*
G01X29781Y31000D01*
G01X29746Y30982D01*
G01X29712Y30962D01*
G01X29679Y30941D01*
G01X29647Y30918D01*
G01X29616Y30893D01*
G01X29587Y30868D01*
G01X29558Y30841D01*
G01X29531Y30812D01*
G01X29506Y30783D01*
G01X29481Y30752D01*
G01X29458Y30720D01*
G01X29437Y30687D01*
G01X29417Y30653D01*
G01X29399Y30618D01*
G01X29382Y30583D01*
G01X29367Y30547D01*
G01X29354Y30510D01*
G01X29342Y30472D01*
G01X29332Y30434D01*
G01X29324Y30396D01*
G01X29318Y30357D01*
G01X29313Y30318D01*
G01X29310Y30279D01*
G01X29310Y30240D01*
G01X29310Y30240D02*
G01X30160Y29390D01*
G04 draw reference designator for part L5*
G54D10*
G01X29800Y30786D02*
G01X29800Y30500D01*
G01X29963Y30500D02*
G01X29800Y30500D01*
G01X30100Y30786D02*
G01X30236Y30786D01*
G01X30100Y30786D02*
G01X30086Y30663D01*
G01X30100Y30677D02*
G01X30086Y30663D01*
G01X30140Y30690D02*
G01X30100Y30677D01*
G01X30181Y30690D02*
G01X30140Y30690D01*
G01X30181Y30690D02*
G01X30222Y30677D01*
G01X30222Y30677D02*
G01X30250Y30650D01*
G01X30250Y30650D02*
G01X30263Y30609D01*
G01X30263Y30609D02*
G01X30263Y30581D01*
G01X30263Y30581D02*
G01X30250Y30540D01*
G01X30250Y30540D02*
G01X30222Y30513D01*
G01X30222Y30513D02*
G01X30181Y30500D01*
G01X30140Y30500D02*
G01X30181Y30500D01*
G01X30100Y30513D02*
G01X30140Y30500D01*
G01X30086Y30527D02*
G01X30100Y30513D01*
G01X30072Y30554D02*
G01X30086Y30527D01*
G04 Draw part L6*
G04 draw part outline for part L6*
G54D11*
G01X22610Y28140D02*
G01X22609Y28179D01*
G01X22606Y28218D01*
G01X22601Y28257D01*
G01X22595Y28296D01*
G01X22587Y28334D01*
G01X22577Y28372D01*
G01X22565Y28410D01*
G01X22552Y28447D01*
G01X22537Y28483D01*
G01X22520Y28518D01*
G01X22502Y28553D01*
G01X22482Y28587D01*
G01X22461Y28620D01*
G01X22438Y28652D01*
G01X22413Y28683D01*
G01X22388Y28712D01*
G01X22361Y28741D01*
G01X22332Y28768D01*
G01X22303Y28793D01*
G01X22272Y28818D01*
G01X22240Y28841D01*
G01X22207Y28862D01*
G01X22173Y28882D01*
G01X22138Y28900D01*
G01X22103Y28917D01*
G01X22067Y28932D01*
G01X22030Y28945D01*
G01X21992Y28957D01*
G01X21954Y28967D01*
G01X21916Y28975D01*
G01X21877Y28981D01*
G01X21838Y28986D01*
G01X21799Y28989D01*
G01X21760Y28990D01*
G01X21760Y27290D02*
G01X21799Y27290D01*
G01X21838Y27293D01*
G01X21877Y27298D01*
G01X21916Y27304D01*
G01X21954Y27312D01*
G01X21992Y27322D01*
G01X22030Y27334D01*
G01X22067Y27347D01*
G01X22103Y27362D01*
G01X22138Y27379D01*
G01X22173Y27397D01*
G01X22207Y27417D01*
G01X22240Y27438D01*
G01X22272Y27461D01*
G01X22303Y27486D01*
G01X22332Y27511D01*
G01X22361Y27538D01*
G01X22388Y27567D01*
G01X22413Y27596D01*
G01X22438Y27627D01*
G01X22461Y27659D01*
G01X22482Y27692D01*
G01X22502Y27726D01*
G01X22520Y27761D01*
G01X22537Y27796D01*
G01X22552Y27832D01*
G01X22565Y27869D01*
G01X22577Y27907D01*
G01X22587Y27945D01*
G01X22595Y27983D01*
G01X22601Y28022D01*
G01X22606Y28061D01*
G01X22609Y28100D01*
G01X22610Y28140D01*
G01X21760Y28990D02*
G01X21720Y28989D01*
G01X21681Y28986D01*
G01X21642Y28981D01*
G01X21603Y28975D01*
G01X21565Y28967D01*
G01X21527Y28957D01*
G01X21489Y28945D01*
G01X21452Y28932D01*
G01X21416Y28917D01*
G01X21381Y28900D01*
G01X21346Y28882D01*
G01X21312Y28862D01*
G01X21279Y28841D01*
G01X21247Y28818D01*
G01X21216Y28793D01*
G01X21187Y28768D01*
G01X21158Y28741D01*
G01X21131Y28712D01*
G01X21106Y28683D01*
G01X21081Y28652D01*
G01X21058Y28620D01*
G01X21037Y28587D01*
G01X21017Y28553D01*
G01X20999Y28518D01*
G01X20982Y28483D01*
G01X20967Y28447D01*
G01X20954Y28410D01*
G01X20942Y28372D01*
G01X20932Y28334D01*
G01X20924Y28296D01*
G01X20918Y28257D01*
G01X20913Y28218D01*
G01X20910Y28179D01*
G01X20910Y28140D01*
G01X20910Y28140D02*
G01X21760Y27290D01*
G04 draw reference designator for part L6*
G54D10*
G01X21400Y28686D02*
G01X21400Y28400D01*
G01X21563Y28400D02*
G01X21400Y28400D01*
G01X21822Y28672D02*
G01X21836Y28645D01*
G01X21781Y28686D02*
G01X21822Y28672D01*
G01X21754Y28686D02*
G01X21781Y28686D01*
G01X21754Y28686D02*
G01X21713Y28672D01*
G01X21713Y28672D02*
G01X21686Y28631D01*
G01X21686Y28631D02*
G01X21672Y28563D01*
G01X21672Y28563D02*
G01X21672Y28495D01*
G01X21672Y28495D02*
G01X21686Y28440D01*
G01X21686Y28440D02*
G01X21713Y28413D01*
G01X21713Y28413D02*
G01X21754Y28400D01*
G01X21768Y28400D02*
G01X21754Y28400D01*
G01X21809Y28413D02*
G01X21768Y28400D01*
G01X21836Y28440D02*
G01X21809Y28413D01*
G01X21850Y28481D02*
G01X21836Y28440D01*
G01X21850Y28495D02*
G01X21850Y28481D01*
G01X21836Y28536D02*
G01X21850Y28495D01*
G01X21809Y28563D02*
G01X21836Y28536D01*
G01X21768Y28577D02*
G01X21809Y28563D01*
G01X21754Y28577D02*
G01X21768Y28577D01*
G01X21754Y28577D02*
G01X21713Y28563D01*
G01X21713Y28563D02*
G01X21686Y28536D01*
G01X21686Y28536D02*
G01X21672Y28495D01*
G04 Draw part L7*
G04 draw part outline for part L7*
G54D11*
G01X24710Y28140D02*
G01X24709Y28179D01*
G01X24706Y28218D01*
G01X24701Y28257D01*
G01X24695Y28296D01*
G01X24687Y28334D01*
G01X24677Y28372D01*
G01X24665Y28410D01*
G01X24652Y28447D01*
G01X24637Y28483D01*
G01X24620Y28518D01*
G01X24602Y28553D01*
G01X24582Y28587D01*
G01X24561Y28620D01*
G01X24538Y28652D01*
G01X24513Y28683D01*
G01X24488Y28712D01*
G01X24461Y28741D01*
G01X24432Y28768D01*
G01X24403Y28793D01*
G01X24372Y28818D01*
G01X24340Y28841D01*
G01X24307Y28862D01*
G01X24273Y28882D01*
G01X24238Y28900D01*
G01X24203Y28917D01*
G01X24167Y28932D01*
G01X24130Y28945D01*
G01X24092Y28957D01*
G01X24054Y28967D01*
G01X24016Y28975D01*
G01X23977Y28981D01*
G01X23938Y28986D01*
G01X23899Y28989D01*
G01X23860Y28990D01*
G01X23860Y27290D02*
G01X23899Y27290D01*
G01X23938Y27293D01*
G01X23977Y27298D01*
G01X24016Y27304D01*
G01X24054Y27312D01*
G01X24092Y27322D01*
G01X24130Y27334D01*
G01X24167Y27347D01*
G01X24203Y27362D01*
G01X24238Y27379D01*
G01X24273Y27397D01*
G01X24307Y27417D01*
G01X24340Y27438D01*
G01X24372Y27461D01*
G01X24403Y27486D01*
G01X24432Y27511D01*
G01X24461Y27538D01*
G01X24488Y27567D01*
G01X24513Y27596D01*
G01X24538Y27627D01*
G01X24561Y27659D01*
G01X24582Y27692D01*
G01X24602Y27726D01*
G01X24620Y27761D01*
G01X24637Y27796D01*
G01X24652Y27832D01*
G01X24665Y27869D01*
G01X24677Y27907D01*
G01X24687Y27945D01*
G01X24695Y27983D01*
G01X24701Y28022D01*
G01X24706Y28061D01*
G01X24709Y28100D01*
G01X24710Y28140D01*
G01X23860Y28990D02*
G01X23820Y28989D01*
G01X23781Y28986D01*
G01X23742Y28981D01*
G01X23703Y28975D01*
G01X23665Y28967D01*
G01X23627Y28957D01*
G01X23589Y28945D01*
G01X23552Y28932D01*
G01X23516Y28917D01*
G01X23481Y28900D01*
G01X23446Y28882D01*
G01X23412Y28862D01*
G01X23379Y28841D01*
G01X23347Y28818D01*
G01X23316Y28793D01*
G01X23287Y28768D01*
G01X23258Y28741D01*
G01X23231Y28712D01*
G01X23206Y28683D01*
G01X23181Y28652D01*
G01X23158Y28620D01*
G01X23137Y28587D01*
G01X23117Y28553D01*
G01X23099Y28518D01*
G01X23082Y28483D01*
G01X23067Y28447D01*
G01X23054Y28410D01*
G01X23042Y28372D01*
G01X23032Y28334D01*
G01X23024Y28296D01*
G01X23018Y28257D01*
G01X23013Y28218D01*
G01X23010Y28179D01*
G01X23010Y28140D01*
G01X23010Y28140D02*
G01X23860Y27290D01*
G04 draw reference designator for part L7*
G54D10*
G01X23500Y28686D02*
G01X23500Y28400D01*
G01X23663Y28400D02*
G01X23500Y28400D01*
G01X23963Y28686D02*
G01X23827Y28400D01*
G01X23963Y28686D02*
G01X23772Y28686D01*
G04 Draw part L8*
G04 draw part outline for part L8*
G54D11*
G01X26810Y28140D02*
G01X26809Y28179D01*
G01X26806Y28218D01*
G01X26801Y28257D01*
G01X26795Y28296D01*
G01X26787Y28334D01*
G01X26777Y28372D01*
G01X26765Y28410D01*
G01X26752Y28447D01*
G01X26737Y28483D01*
G01X26720Y28518D01*
G01X26702Y28553D01*
G01X26682Y28587D01*
G01X26661Y28620D01*
G01X26638Y28652D01*
G01X26613Y28683D01*
G01X26588Y28712D01*
G01X26561Y28741D01*
G01X26532Y28768D01*
G01X26503Y28793D01*
G01X26472Y28818D01*
G01X26440Y28841D01*
G01X26407Y28862D01*
G01X26373Y28882D01*
G01X26338Y28900D01*
G01X26303Y28917D01*
G01X26267Y28932D01*
G01X26230Y28945D01*
G01X26192Y28957D01*
G01X26154Y28967D01*
G01X26116Y28975D01*
G01X26077Y28981D01*
G01X26038Y28986D01*
G01X25999Y28989D01*
G01X25960Y28990D01*
G01X25960Y27290D02*
G01X25999Y27290D01*
G01X26038Y27293D01*
G01X26077Y27298D01*
G01X26116Y27304D01*
G01X26154Y27312D01*
G01X26192Y27322D01*
G01X26230Y27334D01*
G01X26267Y27347D01*
G01X26303Y27362D01*
G01X26338Y27379D01*
G01X26373Y27397D01*
G01X26407Y27417D01*
G01X26440Y27438D01*
G01X26472Y27461D01*
G01X26503Y27486D01*
G01X26532Y27511D01*
G01X26561Y27538D01*
G01X26588Y27567D01*
G01X26613Y27596D01*
G01X26638Y27627D01*
G01X26661Y27659D01*
G01X26682Y27692D01*
G01X26702Y27726D01*
G01X26720Y27761D01*
G01X26737Y27796D01*
G01X26752Y27832D01*
G01X26765Y27869D01*
G01X26777Y27907D01*
G01X26787Y27945D01*
G01X26795Y27983D01*
G01X26801Y28022D01*
G01X26806Y28061D01*
G01X26809Y28100D01*
G01X26810Y28140D01*
G01X25960Y28990D02*
G01X25920Y28989D01*
G01X25881Y28986D01*
G01X25842Y28981D01*
G01X25803Y28975D01*
G01X25765Y28967D01*
G01X25727Y28957D01*
G01X25689Y28945D01*
G01X25652Y28932D01*
G01X25616Y28917D01*
G01X25581Y28900D01*
G01X25546Y28882D01*
G01X25512Y28862D01*
G01X25479Y28841D01*
G01X25447Y28818D01*
G01X25416Y28793D01*
G01X25387Y28768D01*
G01X25358Y28741D01*
G01X25331Y28712D01*
G01X25306Y28683D01*
G01X25281Y28652D01*
G01X25258Y28620D01*
G01X25237Y28587D01*
G01X25217Y28553D01*
G01X25199Y28518D01*
G01X25182Y28483D01*
G01X25167Y28447D01*
G01X25154Y28410D01*
G01X25142Y28372D01*
G01X25132Y28334D01*
G01X25124Y28296D01*
G01X25118Y28257D01*
G01X25113Y28218D01*
G01X25110Y28179D01*
G01X25110Y28140D01*
G01X25110Y28140D02*
G01X25960Y27290D01*
G04 draw reference designator for part L8*
G54D10*
G01X25600Y28686D02*
G01X25600Y28400D01*
G01X25763Y28400D02*
G01X25600Y28400D01*
G01X25940Y28686D02*
G01X25900Y28672D01*
G01X25900Y28672D02*
G01X25886Y28645D01*
G01X25886Y28645D02*
G01X25886Y28618D01*
G01X25886Y28618D02*
G01X25900Y28590D01*
G01X25900Y28590D02*
G01X25927Y28577D01*
G01X25927Y28577D02*
G01X25981Y28563D01*
G01X25981Y28563D02*
G01X26022Y28550D01*
G01X26022Y28550D02*
G01X26050Y28522D01*
G01X26050Y28522D02*
G01X26063Y28495D01*
G01X26063Y28495D02*
G01X26063Y28454D01*
G01X26063Y28454D02*
G01X26050Y28427D01*
G01X26050Y28427D02*
G01X26036Y28413D01*
G01X26036Y28413D02*
G01X25995Y28400D01*
G01X25940Y28400D02*
G01X25995Y28400D01*
G01X25900Y28413D02*
G01X25940Y28400D01*
G01X25886Y28427D02*
G01X25900Y28413D01*
G01X25872Y28454D02*
G01X25886Y28427D01*
G01X25872Y28495D02*
G01X25872Y28454D01*
G01X25886Y28522D02*
G01X25872Y28495D01*
G01X25913Y28550D02*
G01X25886Y28522D01*
G01X25954Y28563D02*
G01X25913Y28550D01*
G01X26009Y28577D02*
G01X25954Y28563D01*
G01X26036Y28590D02*
G01X26009Y28577D01*
G01X26050Y28618D02*
G01X26036Y28590D01*
G01X26050Y28645D02*
G01X26050Y28618D01*
G01X26036Y28672D02*
G01X26050Y28645D01*
G01X25995Y28686D02*
G01X26036Y28672D01*
G01X25940Y28686D02*
G01X25995Y28686D01*
G04 Draw part L9*
G04 draw part outline for part L9*
G54D11*
G01X28910Y28140D02*
G01X28909Y28179D01*
G01X28906Y28218D01*
G01X28901Y28257D01*
G01X28895Y28296D01*
G01X28887Y28334D01*
G01X28877Y28372D01*
G01X28865Y28410D01*
G01X28852Y28447D01*
G01X28837Y28483D01*
G01X28820Y28518D01*
G01X28802Y28553D01*
G01X28782Y28587D01*
G01X28761Y28620D01*
G01X28738Y28652D01*
G01X28713Y28683D01*
G01X28688Y28712D01*
G01X28661Y28741D01*
G01X28632Y28768D01*
G01X28603Y28793D01*
G01X28572Y28818D01*
G01X28540Y28841D01*
G01X28507Y28862D01*
G01X28473Y28882D01*
G01X28438Y28900D01*
G01X28403Y28917D01*
G01X28367Y28932D01*
G01X28330Y28945D01*
G01X28292Y28957D01*
G01X28254Y28967D01*
G01X28216Y28975D01*
G01X28177Y28981D01*
G01X28138Y28986D01*
G01X28099Y28989D01*
G01X28060Y28990D01*
G01X28060Y27290D02*
G01X28099Y27290D01*
G01X28138Y27293D01*
G01X28177Y27298D01*
G01X28216Y27304D01*
G01X28254Y27312D01*
G01X28292Y27322D01*
G01X28330Y27334D01*
G01X28367Y27347D01*
G01X28403Y27362D01*
G01X28438Y27379D01*
G01X28473Y27397D01*
G01X28507Y27417D01*
G01X28540Y27438D01*
G01X28572Y27461D01*
G01X28603Y27486D01*
G01X28632Y27511D01*
G01X28661Y27538D01*
G01X28688Y27567D01*
G01X28713Y27596D01*
G01X28738Y27627D01*
G01X28761Y27659D01*
G01X28782Y27692D01*
G01X28802Y27726D01*
G01X28820Y27761D01*
G01X28837Y27796D01*
G01X28852Y27832D01*
G01X28865Y27869D01*
G01X28877Y27907D01*
G01X28887Y27945D01*
G01X28895Y27983D01*
G01X28901Y28022D01*
G01X28906Y28061D01*
G01X28909Y28100D01*
G01X28910Y28140D01*
G01X28060Y28990D02*
G01X28020Y28989D01*
G01X27981Y28986D01*
G01X27942Y28981D01*
G01X27903Y28975D01*
G01X27865Y28967D01*
G01X27827Y28957D01*
G01X27789Y28945D01*
G01X27752Y28932D01*
G01X27716Y28917D01*
G01X27681Y28900D01*
G01X27646Y28882D01*
G01X27612Y28862D01*
G01X27579Y28841D01*
G01X27547Y28818D01*
G01X27516Y28793D01*
G01X27487Y28768D01*
G01X27458Y28741D01*
G01X27431Y28712D01*
G01X27406Y28683D01*
G01X27381Y28652D01*
G01X27358Y28620D01*
G01X27337Y28587D01*
G01X27317Y28553D01*
G01X27299Y28518D01*
G01X27282Y28483D01*
G01X27267Y28447D01*
G01X27254Y28410D01*
G01X27242Y28372D01*
G01X27232Y28334D01*
G01X27224Y28296D01*
G01X27218Y28257D01*
G01X27213Y28218D01*
G01X27210Y28179D01*
G01X27210Y28140D01*
G01X27210Y28140D02*
G01X28060Y27290D01*
G04 draw reference designator for part L9*
G54D10*
G01X27700Y28686D02*
G01X27700Y28400D01*
G01X27863Y28400D02*
G01X27700Y28400D01*
G01X28150Y28590D02*
G01X28136Y28550D01*
G01X28136Y28550D02*
G01X28109Y28522D01*
G01X28109Y28522D02*
G01X28068Y28509D01*
G01X28054Y28509D02*
G01X28068Y28509D01*
G01X28013Y28522D02*
G01X28054Y28509D01*
G01X27986Y28550D02*
G01X28013Y28522D01*
G01X27972Y28590D02*
G01X27986Y28550D01*
G01X27972Y28604D02*
G01X27972Y28590D01*
G01X27986Y28645D02*
G01X27972Y28604D01*
G01X28013Y28672D02*
G01X27986Y28645D01*
G01X28054Y28686D02*
G01X28013Y28672D01*
G01X28068Y28686D02*
G01X28054Y28686D01*
G01X28068Y28686D02*
G01X28109Y28672D01*
G01X28109Y28672D02*
G01X28136Y28645D01*
G01X28136Y28645D02*
G01X28150Y28590D01*
G01X28150Y28590D02*
G01X28150Y28522D01*
G01X28150Y28522D02*
G01X28136Y28454D01*
G01X28136Y28454D02*
G01X28109Y28413D01*
G01X28109Y28413D02*
G01X28068Y28400D01*
G01X28040Y28400D02*
G01X28068Y28400D01*
G01X28000Y28413D02*
G01X28040Y28400D01*
G01X27986Y28440D02*
G01X28000Y28413D01*
G04 Draw part L10*
G04 draw part outline for part L10*
G54D11*
G01X31010Y28140D02*
G01X31009Y28179D01*
G01X31006Y28218D01*
G01X31001Y28257D01*
G01X30995Y28296D01*
G01X30987Y28334D01*
G01X30977Y28372D01*
G01X30965Y28410D01*
G01X30952Y28447D01*
G01X30937Y28483D01*
G01X30920Y28518D01*
G01X30902Y28553D01*
G01X30882Y28587D01*
G01X30861Y28620D01*
G01X30838Y28652D01*
G01X30813Y28683D01*
G01X30788Y28712D01*
G01X30761Y28741D01*
G01X30732Y28768D01*
G01X30703Y28793D01*
G01X30672Y28818D01*
G01X30640Y28841D01*
G01X30607Y28862D01*
G01X30573Y28882D01*
G01X30538Y28900D01*
G01X30503Y28917D01*
G01X30467Y28932D01*
G01X30430Y28945D01*
G01X30392Y28957D01*
G01X30354Y28967D01*
G01X30316Y28975D01*
G01X30277Y28981D01*
G01X30238Y28986D01*
G01X30199Y28989D01*
G01X30160Y28990D01*
G01X30160Y27290D02*
G01X30199Y27290D01*
G01X30238Y27293D01*
G01X30277Y27298D01*
G01X30316Y27304D01*
G01X30354Y27312D01*
G01X30392Y27322D01*
G01X30430Y27334D01*
G01X30467Y27347D01*
G01X30503Y27362D01*
G01X30538Y27379D01*
G01X30573Y27397D01*
G01X30607Y27417D01*
G01X30640Y27438D01*
G01X30672Y27461D01*
G01X30703Y27486D01*
G01X30732Y27511D01*
G01X30761Y27538D01*
G01X30788Y27567D01*
G01X30813Y27596D01*
G01X30838Y27627D01*
G01X30861Y27659D01*
G01X30882Y27692D01*
G01X30902Y27726D01*
G01X30920Y27761D01*
G01X30937Y27796D01*
G01X30952Y27832D01*
G01X30965Y27869D01*
G01X30977Y27907D01*
G01X30987Y27945D01*
G01X30995Y27983D01*
G01X31001Y28022D01*
G01X31006Y28061D01*
G01X31009Y28100D01*
G01X31010Y28140D01*
G01X30160Y28990D02*
G01X30120Y28989D01*
G01X30081Y28986D01*
G01X30042Y28981D01*
G01X30003Y28975D01*
G01X29965Y28967D01*
G01X29927Y28957D01*
G01X29889Y28945D01*
G01X29852Y28932D01*
G01X29816Y28917D01*
G01X29781Y28900D01*
G01X29746Y28882D01*
G01X29712Y28862D01*
G01X29679Y28841D01*
G01X29647Y28818D01*
G01X29616Y28793D01*
G01X29587Y28768D01*
G01X29558Y28741D01*
G01X29531Y28712D01*
G01X29506Y28683D01*
G01X29481Y28652D01*
G01X29458Y28620D01*
G01X29437Y28587D01*
G01X29417Y28553D01*
G01X29399Y28518D01*
G01X29382Y28483D01*
G01X29367Y28447D01*
G01X29354Y28410D01*
G01X29342Y28372D01*
G01X29332Y28334D01*
G01X29324Y28296D01*
G01X29318Y28257D01*
G01X29313Y28218D01*
G01X29310Y28179D01*
G01X29310Y28140D01*
G01X29310Y28140D02*
G01X30160Y27290D01*
G04 draw reference designator for part L10*
G54D10*
G01X29800Y28686D02*
G01X29800Y28400D01*
G01X29963Y28400D02*
G01X29800Y28400D01*
G01X30100Y28645D02*
G01X30072Y28631D01*
G01X30140Y28686D02*
G01X30100Y28645D01*
G01X30140Y28686D02*
G01X30140Y28400D01*
G01X30331Y28686D02*
G01X30290Y28672D01*
G01X30290Y28672D02*
G01X30263Y28631D01*
G01X30263Y28631D02*
G01X30250Y28563D01*
G01X30250Y28563D02*
G01X30250Y28522D01*
G01X30250Y28522D02*
G01X30263Y28454D01*
G01X30263Y28454D02*
G01X30290Y28413D01*
G01X30290Y28413D02*
G01X30331Y28400D01*
G01X30359Y28400D02*
G01X30331Y28400D01*
G01X30400Y28413D02*
G01X30359Y28400D01*
G01X30427Y28454D02*
G01X30400Y28413D01*
G01X30440Y28522D02*
G01X30427Y28454D01*
G01X30440Y28563D02*
G01X30440Y28522D01*
G01X30427Y28631D02*
G01X30440Y28563D01*
G01X30400Y28672D02*
G01X30427Y28631D01*
G01X30359Y28686D02*
G01X30400Y28672D01*
G01X30331Y28686D02*
G01X30359Y28686D01*
G04 Draw part L11*
G04 draw part outline for part L11*
G54D11*
G01X22610Y26040D02*
G01X22609Y26079D01*
G01X22606Y26118D01*
G01X22601Y26157D01*
G01X22595Y26196D01*
G01X22587Y26234D01*
G01X22577Y26272D01*
G01X22565Y26310D01*
G01X22552Y26347D01*
G01X22537Y26383D01*
G01X22520Y26418D01*
G01X22502Y26453D01*
G01X22482Y26487D01*
G01X22461Y26520D01*
G01X22438Y26552D01*
G01X22413Y26583D01*
G01X22388Y26612D01*
G01X22361Y26641D01*
G01X22332Y26668D01*
G01X22303Y26693D01*
G01X22272Y26718D01*
G01X22240Y26741D01*
G01X22207Y26762D01*
G01X22173Y26782D01*
G01X22138Y26800D01*
G01X22103Y26817D01*
G01X22067Y26832D01*
G01X22030Y26845D01*
G01X21992Y26857D01*
G01X21954Y26867D01*
G01X21916Y26875D01*
G01X21877Y26881D01*
G01X21838Y26886D01*
G01X21799Y26889D01*
G01X21760Y26890D01*
G01X21760Y25190D02*
G01X21799Y25190D01*
G01X21838Y25193D01*
G01X21877Y25198D01*
G01X21916Y25204D01*
G01X21954Y25212D01*
G01X21992Y25222D01*
G01X22030Y25234D01*
G01X22067Y25247D01*
G01X22103Y25262D01*
G01X22138Y25279D01*
G01X22173Y25297D01*
G01X22207Y25317D01*
G01X22240Y25338D01*
G01X22272Y25361D01*
G01X22303Y25386D01*
G01X22332Y25411D01*
G01X22361Y25438D01*
G01X22388Y25467D01*
G01X22413Y25496D01*
G01X22438Y25527D01*
G01X22461Y25559D01*
G01X22482Y25592D01*
G01X22502Y25626D01*
G01X22520Y25661D01*
G01X22537Y25696D01*
G01X22552Y25732D01*
G01X22565Y25769D01*
G01X22577Y25807D01*
G01X22587Y25845D01*
G01X22595Y25883D01*
G01X22601Y25922D01*
G01X22606Y25961D01*
G01X22609Y26000D01*
G01X22610Y26040D01*
G01X21760Y26890D02*
G01X21720Y26889D01*
G01X21681Y26886D01*
G01X21642Y26881D01*
G01X21603Y26875D01*
G01X21565Y26867D01*
G01X21527Y26857D01*
G01X21489Y26845D01*
G01X21452Y26832D01*
G01X21416Y26817D01*
G01X21381Y26800D01*
G01X21346Y26782D01*
G01X21312Y26762D01*
G01X21279Y26741D01*
G01X21247Y26718D01*
G01X21216Y26693D01*
G01X21187Y26668D01*
G01X21158Y26641D01*
G01X21131Y26612D01*
G01X21106Y26583D01*
G01X21081Y26552D01*
G01X21058Y26520D01*
G01X21037Y26487D01*
G01X21017Y26453D01*
G01X20999Y26418D01*
G01X20982Y26383D01*
G01X20967Y26347D01*
G01X20954Y26310D01*
G01X20942Y26272D01*
G01X20932Y26234D01*
G01X20924Y26196D01*
G01X20918Y26157D01*
G01X20913Y26118D01*
G01X20910Y26079D01*
G01X20910Y26040D01*
G01X20910Y26040D02*
G01X21760Y25190D01*
G04 draw reference designator for part L11*
G54D10*
G01X21400Y26586D02*
G01X21400Y26300D01*
G01X21563Y26300D02*
G01X21400Y26300D01*
G01X21700Y26545D02*
G01X21672Y26531D01*
G01X21740Y26586D02*
G01X21700Y26545D01*
G01X21740Y26586D02*
G01X21740Y26300D01*
G01X21877Y26545D02*
G01X21850Y26531D01*
G01X21918Y26586D02*
G01X21877Y26545D01*
G01X21918Y26586D02*
G01X21918Y26300D01*
G04 Draw part L12*
G04 draw part outline for part L12*
G54D11*
G01X24710Y26040D02*
G01X24709Y26079D01*
G01X24706Y26118D01*
G01X24701Y26157D01*
G01X24695Y26196D01*
G01X24687Y26234D01*
G01X24677Y26272D01*
G01X24665Y26310D01*
G01X24652Y26347D01*
G01X24637Y26383D01*
G01X24620Y26418D01*
G01X24602Y26453D01*
G01X24582Y26487D01*
G01X24561Y26520D01*
G01X24538Y26552D01*
G01X24513Y26583D01*
G01X24488Y26612D01*
G01X24461Y26641D01*
G01X24432Y26668D01*
G01X24403Y26693D01*
G01X24372Y26718D01*
G01X24340Y26741D01*
G01X24307Y26762D01*
G01X24273Y26782D01*
G01X24238Y26800D01*
G01X24203Y26817D01*
G01X24167Y26832D01*
G01X24130Y26845D01*
G01X24092Y26857D01*
G01X24054Y26867D01*
G01X24016Y26875D01*
G01X23977Y26881D01*
G01X23938Y26886D01*
G01X23899Y26889D01*
G01X23860Y26890D01*
G01X23860Y25190D02*
G01X23899Y25190D01*
G01X23938Y25193D01*
G01X23977Y25198D01*
G01X24016Y25204D01*
G01X24054Y25212D01*
G01X24092Y25222D01*
G01X24130Y25234D01*
G01X24167Y25247D01*
G01X24203Y25262D01*
G01X24238Y25279D01*
G01X24273Y25297D01*
G01X24307Y25317D01*
G01X24340Y25338D01*
G01X24372Y25361D01*
G01X24403Y25386D01*
G01X24432Y25411D01*
G01X24461Y25438D01*
G01X24488Y25467D01*
G01X24513Y25496D01*
G01X24538Y25527D01*
G01X24561Y25559D01*
G01X24582Y25592D01*
G01X24602Y25626D01*
G01X24620Y25661D01*
G01X24637Y25696D01*
G01X24652Y25732D01*
G01X24665Y25769D01*
G01X24677Y25807D01*
G01X24687Y25845D01*
G01X24695Y25883D01*
G01X24701Y25922D01*
G01X24706Y25961D01*
G01X24709Y26000D01*
G01X24710Y26040D01*
G01X23860Y26890D02*
G01X23820Y26889D01*
G01X23781Y26886D01*
G01X23742Y26881D01*
G01X23703Y26875D01*
G01X23665Y26867D01*
G01X23627Y26857D01*
G01X23589Y26845D01*
G01X23552Y26832D01*
G01X23516Y26817D01*
G01X23481Y26800D01*
G01X23446Y26782D01*
G01X23412Y26762D01*
G01X23379Y26741D01*
G01X23347Y26718D01*
G01X23316Y26693D01*
G01X23287Y26668D01*
G01X23258Y26641D01*
G01X23231Y26612D01*
G01X23206Y26583D01*
G01X23181Y26552D01*
G01X23158Y26520D01*
G01X23137Y26487D01*
G01X23117Y26453D01*
G01X23099Y26418D01*
G01X23082Y26383D01*
G01X23067Y26347D01*
G01X23054Y26310D01*
G01X23042Y26272D01*
G01X23032Y26234D01*
G01X23024Y26196D01*
G01X23018Y26157D01*
G01X23013Y26118D01*
G01X23010Y26079D01*
G01X23010Y26040D01*
G01X23010Y26040D02*
G01X23860Y25190D01*
G04 draw reference designator for part L12*
G54D10*
G01X23500Y26586D02*
G01X23500Y26300D01*
G01X23663Y26300D02*
G01X23500Y26300D01*
G01X23800Y26545D02*
G01X23772Y26531D01*
G01X23840Y26586D02*
G01X23800Y26545D01*
G01X23840Y26586D02*
G01X23840Y26300D01*
G01X23963Y26531D02*
G01X23963Y26518D01*
G01X23977Y26559D02*
G01X23963Y26531D01*
G01X23990Y26572D02*
G01X23977Y26559D01*
G01X24018Y26586D02*
G01X23990Y26572D01*
G01X24072Y26586D02*
G01X24018Y26586D01*
G01X24072Y26586D02*
G01X24100Y26572D01*
G01X24100Y26572D02*
G01X24113Y26559D01*
G01X24113Y26559D02*
G01X24127Y26531D01*
G01X24127Y26531D02*
G01X24127Y26504D01*
G01X24127Y26504D02*
G01X24113Y26477D01*
G01X24113Y26477D02*
G01X24086Y26436D01*
G01X24086Y26436D02*
G01X23950Y26300D01*
G01X24140Y26300D02*
G01X23950Y26300D01*
G04 Draw part L13*
G04 draw part outline for part L13*
G54D11*
G01X26810Y26040D02*
G01X26809Y26079D01*
G01X26806Y26118D01*
G01X26801Y26157D01*
G01X26795Y26196D01*
G01X26787Y26234D01*
G01X26777Y26272D01*
G01X26765Y26310D01*
G01X26752Y26347D01*
G01X26737Y26383D01*
G01X26720Y26418D01*
G01X26702Y26453D01*
G01X26682Y26487D01*
G01X26661Y26520D01*
G01X26638Y26552D01*
G01X26613Y26583D01*
G01X26588Y26612D01*
G01X26561Y26641D01*
G01X26532Y26668D01*
G01X26503Y26693D01*
G01X26472Y26718D01*
G01X26440Y26741D01*
G01X26407Y26762D01*
G01X26373Y26782D01*
G01X26338Y26800D01*
G01X26303Y26817D01*
G01X26267Y26832D01*
G01X26230Y26845D01*
G01X26192Y26857D01*
G01X26154Y26867D01*
G01X26116Y26875D01*
G01X26077Y26881D01*
G01X26038Y26886D01*
G01X25999Y26889D01*
G01X25960Y26890D01*
G01X25960Y25190D02*
G01X25999Y25190D01*
G01X26038Y25193D01*
G01X26077Y25198D01*
G01X26116Y25204D01*
G01X26154Y25212D01*
G01X26192Y25222D01*
G01X26230Y25234D01*
G01X26267Y25247D01*
G01X26303Y25262D01*
G01X26338Y25279D01*
G01X26373Y25297D01*
G01X26407Y25317D01*
G01X26440Y25338D01*
G01X26472Y25361D01*
G01X26503Y25386D01*
G01X26532Y25411D01*
G01X26561Y25438D01*
G01X26588Y25467D01*
G01X26613Y25496D01*
G01X26638Y25527D01*
G01X26661Y25559D01*
G01X26682Y25592D01*
G01X26702Y25626D01*
G01X26720Y25661D01*
G01X26737Y25696D01*
G01X26752Y25732D01*
G01X26765Y25769D01*
G01X26777Y25807D01*
G01X26787Y25845D01*
G01X26795Y25883D01*
G01X26801Y25922D01*
G01X26806Y25961D01*
G01X26809Y26000D01*
G01X26810Y26040D01*
G01X25960Y26890D02*
G01X25920Y26889D01*
G01X25881Y26886D01*
G01X25842Y26881D01*
G01X25803Y26875D01*
G01X25765Y26867D01*
G01X25727Y26857D01*
G01X25689Y26845D01*
G01X25652Y26832D01*
G01X25616Y26817D01*
G01X25581Y26800D01*
G01X25546Y26782D01*
G01X25512Y26762D01*
G01X25479Y26741D01*
G01X25447Y26718D01*
G01X25416Y26693D01*
G01X25387Y26668D01*
G01X25358Y26641D01*
G01X25331Y26612D01*
G01X25306Y26583D01*
G01X25281Y26552D01*
G01X25258Y26520D01*
G01X25237Y26487D01*
G01X25217Y26453D01*
G01X25199Y26418D01*
G01X25182Y26383D01*
G01X25167Y26347D01*
G01X25154Y26310D01*
G01X25142Y26272D01*
G01X25132Y26234D01*
G01X25124Y26196D01*
G01X25118Y26157D01*
G01X25113Y26118D01*
G01X25110Y26079D01*
G01X25110Y26040D01*
G01X25110Y26040D02*
G01X25960Y25190D01*
G04 draw reference designator for part L13*
G54D10*
G01X25600Y26586D02*
G01X25600Y26300D01*
G01X25763Y26300D02*
G01X25600Y26300D01*
G01X25900Y26545D02*
G01X25872Y26531D01*
G01X25940Y26586D02*
G01X25900Y26545D01*
G01X25940Y26586D02*
G01X25940Y26300D01*
G01X26227Y26586D02*
G01X26077Y26586D01*
G01X26227Y26586D02*
G01X26145Y26477D01*
G01X26186Y26477D02*
G01X26145Y26477D01*
G01X26186Y26477D02*
G01X26213Y26463D01*
G01X26213Y26463D02*
G01X26227Y26450D01*
G01X26227Y26450D02*
G01X26240Y26409D01*
G01X26240Y26409D02*
G01X26240Y26381D01*
G01X26240Y26381D02*
G01X26227Y26340D01*
G01X26227Y26340D02*
G01X26200Y26313D01*
G01X26200Y26313D02*
G01X26159Y26300D01*
G01X26118Y26300D02*
G01X26159Y26300D01*
G01X26077Y26313D02*
G01X26118Y26300D01*
G01X26063Y26327D02*
G01X26077Y26313D01*
G01X26050Y26354D02*
G01X26063Y26327D01*
G04 Draw part L14*
G04 draw part outline for part L14*
G54D11*
G01X28910Y26040D02*
G01X28909Y26079D01*
G01X28906Y26118D01*
G01X28901Y26157D01*
G01X28895Y26196D01*
G01X28887Y26234D01*
G01X28877Y26272D01*
G01X28865Y26310D01*
G01X28852Y26347D01*
G01X28837Y26383D01*
G01X28820Y26418D01*
G01X28802Y26453D01*
G01X28782Y26487D01*
G01X28761Y26520D01*
G01X28738Y26552D01*
G01X28713Y26583D01*
G01X28688Y26612D01*
G01X28661Y26641D01*
G01X28632Y26668D01*
G01X28603Y26693D01*
G01X28572Y26718D01*
G01X28540Y26741D01*
G01X28507Y26762D01*
G01X28473Y26782D01*
G01X28438Y26800D01*
G01X28403Y26817D01*
G01X28367Y26832D01*
G01X28330Y26845D01*
G01X28292Y26857D01*
G01X28254Y26867D01*
G01X28216Y26875D01*
G01X28177Y26881D01*
G01X28138Y26886D01*
G01X28099Y26889D01*
G01X28060Y26890D01*
G01X28060Y25190D02*
G01X28099Y25190D01*
G01X28138Y25193D01*
G01X28177Y25198D01*
G01X28216Y25204D01*
G01X28254Y25212D01*
G01X28292Y25222D01*
G01X28330Y25234D01*
G01X28367Y25247D01*
G01X28403Y25262D01*
G01X28438Y25279D01*
G01X28473Y25297D01*
G01X28507Y25317D01*
G01X28540Y25338D01*
G01X28572Y25361D01*
G01X28603Y25386D01*
G01X28632Y25411D01*
G01X28661Y25438D01*
G01X28688Y25467D01*
G01X28713Y25496D01*
G01X28738Y25527D01*
G01X28761Y25559D01*
G01X28782Y25592D01*
G01X28802Y25626D01*
G01X28820Y25661D01*
G01X28837Y25696D01*
G01X28852Y25732D01*
G01X28865Y25769D01*
G01X28877Y25807D01*
G01X28887Y25845D01*
G01X28895Y25883D01*
G01X28901Y25922D01*
G01X28906Y25961D01*
G01X28909Y26000D01*
G01X28910Y26040D01*
G01X28060Y26890D02*
G01X28020Y26889D01*
G01X27981Y26886D01*
G01X27942Y26881D01*
G01X27903Y26875D01*
G01X27865Y26867D01*
G01X27827Y26857D01*
G01X27789Y26845D01*
G01X27752Y26832D01*
G01X27716Y26817D01*
G01X27681Y26800D01*
G01X27646Y26782D01*
G01X27612Y26762D01*
G01X27579Y26741D01*
G01X27547Y26718D01*
G01X27516Y26693D01*
G01X27487Y26668D01*
G01X27458Y26641D01*
G01X27431Y26612D01*
G01X27406Y26583D01*
G01X27381Y26552D01*
G01X27358Y26520D01*
G01X27337Y26487D01*
G01X27317Y26453D01*
G01X27299Y26418D01*
G01X27282Y26383D01*
G01X27267Y26347D01*
G01X27254Y26310D01*
G01X27242Y26272D01*
G01X27232Y26234D01*
G01X27224Y26196D01*
G01X27218Y26157D01*
G01X27213Y26118D01*
G01X27210Y26079D01*
G01X27210Y26040D01*
G01X27210Y26040D02*
G01X28060Y25190D01*
G04 draw reference designator for part L14*
G54D10*
G01X27700Y26586D02*
G01X27700Y26300D01*
G01X27863Y26300D02*
G01X27700Y26300D01*
G01X28000Y26545D02*
G01X27972Y26531D01*
G01X28040Y26586D02*
G01X28000Y26545D01*
G01X28040Y26586D02*
G01X28040Y26300D01*
G01X28286Y26586D02*
G01X28150Y26395D01*
G01X28354Y26395D02*
G01X28150Y26395D01*
G01X28286Y26586D02*
G01X28286Y26300D01*
G04 Draw part L15*
G04 draw part outline for part L15*
G54D11*
G01X31010Y26040D02*
G01X31009Y26079D01*
G01X31006Y26118D01*
G01X31001Y26157D01*
G01X30995Y26196D01*
G01X30987Y26234D01*
G01X30977Y26272D01*
G01X30965Y26310D01*
G01X30952Y26347D01*
G01X30937Y26383D01*
G01X30920Y26418D01*
G01X30902Y26453D01*
G01X30882Y26487D01*
G01X30861Y26520D01*
G01X30838Y26552D01*
G01X30813Y26583D01*
G01X30788Y26612D01*
G01X30761Y26641D01*
G01X30732Y26668D01*
G01X30703Y26693D01*
G01X30672Y26718D01*
G01X30640Y26741D01*
G01X30607Y26762D01*
G01X30573Y26782D01*
G01X30538Y26800D01*
G01X30503Y26817D01*
G01X30467Y26832D01*
G01X30430Y26845D01*
G01X30392Y26857D01*
G01X30354Y26867D01*
G01X30316Y26875D01*
G01X30277Y26881D01*
G01X30238Y26886D01*
G01X30199Y26889D01*
G01X30160Y26890D01*
G01X30160Y25190D02*
G01X30199Y25190D01*
G01X30238Y25193D01*
G01X30277Y25198D01*
G01X30316Y25204D01*
G01X30354Y25212D01*
G01X30392Y25222D01*
G01X30430Y25234D01*
G01X30467Y25247D01*
G01X30503Y25262D01*
G01X30538Y25279D01*
G01X30573Y25297D01*
G01X30607Y25317D01*
G01X30640Y25338D01*
G01X30672Y25361D01*
G01X30703Y25386D01*
G01X30732Y25411D01*
G01X30761Y25438D01*
G01X30788Y25467D01*
G01X30813Y25496D01*
G01X30838Y25527D01*
G01X30861Y25559D01*
G01X30882Y25592D01*
G01X30902Y25626D01*
G01X30920Y25661D01*
G01X30937Y25696D01*
G01X30952Y25732D01*
G01X30965Y25769D01*
G01X30977Y25807D01*
G01X30987Y25845D01*
G01X30995Y25883D01*
G01X31001Y25922D01*
G01X31006Y25961D01*
G01X31009Y26000D01*
G01X31010Y26040D01*
G01X30160Y26890D02*
G01X30120Y26889D01*
G01X30081Y26886D01*
G01X30042Y26881D01*
G01X30003Y26875D01*
G01X29965Y26867D01*
G01X29927Y26857D01*
G01X29889Y26845D01*
G01X29852Y26832D01*
G01X29816Y26817D01*
G01X29781Y26800D01*
G01X29746Y26782D01*
G01X29712Y26762D01*
G01X29679Y26741D01*
G01X29647Y26718D01*
G01X29616Y26693D01*
G01X29587Y26668D01*
G01X29558Y26641D01*
G01X29531Y26612D01*
G01X29506Y26583D01*
G01X29481Y26552D01*
G01X29458Y26520D01*
G01X29437Y26487D01*
G01X29417Y26453D01*
G01X29399Y26418D01*
G01X29382Y26383D01*
G01X29367Y26347D01*
G01X29354Y26310D01*
G01X29342Y26272D01*
G01X29332Y26234D01*
G01X29324Y26196D01*
G01X29318Y26157D01*
G01X29313Y26118D01*
G01X29310Y26079D01*
G01X29310Y26040D01*
G01X29310Y26040D02*
G01X30160Y25190D01*
G04 draw reference designator for part L15*
G54D10*
G01X29800Y26586D02*
G01X29800Y26300D01*
G01X29963Y26300D02*
G01X29800Y26300D01*
G01X30100Y26545D02*
G01X30072Y26531D01*
G01X30140Y26586D02*
G01X30100Y26545D01*
G01X30140Y26586D02*
G01X30140Y26300D01*
G01X30277Y26586D02*
G01X30413Y26586D01*
G01X30277Y26586D02*
G01X30263Y26463D01*
G01X30277Y26477D02*
G01X30263Y26463D01*
G01X30318Y26490D02*
G01X30277Y26477D01*
G01X30359Y26490D02*
G01X30318Y26490D01*
G01X30359Y26490D02*
G01X30400Y26477D01*
G01X30400Y26477D02*
G01X30427Y26450D01*
G01X30427Y26450D02*
G01X30440Y26409D01*
G01X30440Y26409D02*
G01X30440Y26381D01*
G01X30440Y26381D02*
G01X30427Y26340D01*
G01X30427Y26340D02*
G01X30400Y26313D01*
G01X30400Y26313D02*
G01X30359Y26300D01*
G01X30318Y26300D02*
G01X30359Y26300D01*
G01X30277Y26313D02*
G01X30318Y26300D01*
G01X30263Y26327D02*
G01X30277Y26313D01*
G01X30250Y26354D02*
G01X30263Y26327D01*
G04 Draw part L16*
G04 draw part outline for part L16*
G54D11*
G01X22610Y24040D02*
G01X22609Y24079D01*
G01X22606Y24118D01*
G01X22601Y24157D01*
G01X22595Y24196D01*
G01X22587Y24234D01*
G01X22577Y24272D01*
G01X22565Y24310D01*
G01X22552Y24347D01*
G01X22537Y24383D01*
G01X22520Y24418D01*
G01X22502Y24453D01*
G01X22482Y24487D01*
G01X22461Y24520D01*
G01X22438Y24552D01*
G01X22413Y24583D01*
G01X22388Y24612D01*
G01X22361Y24641D01*
G01X22332Y24668D01*
G01X22303Y24693D01*
G01X22272Y24718D01*
G01X22240Y24741D01*
G01X22207Y24762D01*
G01X22173Y24782D01*
G01X22138Y24800D01*
G01X22103Y24817D01*
G01X22067Y24832D01*
G01X22030Y24845D01*
G01X21992Y24857D01*
G01X21954Y24867D01*
G01X21916Y24875D01*
G01X21877Y24881D01*
G01X21838Y24886D01*
G01X21799Y24889D01*
G01X21760Y24890D01*
G01X21760Y23190D02*
G01X21799Y23190D01*
G01X21838Y23193D01*
G01X21877Y23198D01*
G01X21916Y23204D01*
G01X21954Y23212D01*
G01X21992Y23222D01*
G01X22030Y23234D01*
G01X22067Y23247D01*
G01X22103Y23262D01*
G01X22138Y23279D01*
G01X22173Y23297D01*
G01X22207Y23317D01*
G01X22240Y23338D01*
G01X22272Y23361D01*
G01X22303Y23386D01*
G01X22332Y23411D01*
G01X22361Y23438D01*
G01X22388Y23467D01*
G01X22413Y23496D01*
G01X22438Y23527D01*
G01X22461Y23559D01*
G01X22482Y23592D01*
G01X22502Y23626D01*
G01X22520Y23661D01*
G01X22537Y23696D01*
G01X22552Y23732D01*
G01X22565Y23769D01*
G01X22577Y23807D01*
G01X22587Y23845D01*
G01X22595Y23883D01*
G01X22601Y23922D01*
G01X22606Y23961D01*
G01X22609Y24000D01*
G01X22610Y24040D01*
G01X21760Y24890D02*
G01X21720Y24889D01*
G01X21681Y24886D01*
G01X21642Y24881D01*
G01X21603Y24875D01*
G01X21565Y24867D01*
G01X21527Y24857D01*
G01X21489Y24845D01*
G01X21452Y24832D01*
G01X21416Y24817D01*
G01X21381Y24800D01*
G01X21346Y24782D01*
G01X21312Y24762D01*
G01X21279Y24741D01*
G01X21247Y24718D01*
G01X21216Y24693D01*
G01X21187Y24668D01*
G01X21158Y24641D01*
G01X21131Y24612D01*
G01X21106Y24583D01*
G01X21081Y24552D01*
G01X21058Y24520D01*
G01X21037Y24487D01*
G01X21017Y24453D01*
G01X20999Y24418D01*
G01X20982Y24383D01*
G01X20967Y24347D01*
G01X20954Y24310D01*
G01X20942Y24272D01*
G01X20932Y24234D01*
G01X20924Y24196D01*
G01X20918Y24157D01*
G01X20913Y24118D01*
G01X20910Y24079D01*
G01X20910Y24040D01*
G01X20910Y24040D02*
G01X21760Y23190D01*
G04 draw reference designator for part L16*
G54D10*
G01X21400Y24586D02*
G01X21400Y24300D01*
G01X21563Y24300D02*
G01X21400Y24300D01*
G01X21700Y24545D02*
G01X21672Y24531D01*
G01X21740Y24586D02*
G01X21700Y24545D01*
G01X21740Y24586D02*
G01X21740Y24300D01*
G01X22000Y24572D02*
G01X22013Y24545D01*
G01X21959Y24586D02*
G01X22000Y24572D01*
G01X21931Y24586D02*
G01X21959Y24586D01*
G01X21931Y24586D02*
G01X21890Y24572D01*
G01X21890Y24572D02*
G01X21863Y24531D01*
G01X21863Y24531D02*
G01X21850Y24463D01*
G01X21850Y24463D02*
G01X21850Y24395D01*
G01X21850Y24395D02*
G01X21863Y24340D01*
G01X21863Y24340D02*
G01X21890Y24313D01*
G01X21890Y24313D02*
G01X21931Y24300D01*
G01X21945Y24300D02*
G01X21931Y24300D01*
G01X21986Y24313D02*
G01X21945Y24300D01*
G01X22013Y24340D02*
G01X21986Y24313D01*
G01X22027Y24381D02*
G01X22013Y24340D01*
G01X22027Y24395D02*
G01X22027Y24381D01*
G01X22013Y24436D02*
G01X22027Y24395D01*
G01X21986Y24463D02*
G01X22013Y24436D01*
G01X21945Y24477D02*
G01X21986Y24463D01*
G01X21931Y24477D02*
G01X21945Y24477D01*
G01X21931Y24477D02*
G01X21890Y24463D01*
G01X21890Y24463D02*
G01X21863Y24436D01*
G01X21863Y24436D02*
G01X21850Y24395D01*
G04 Draw part L17*
G04 draw part outline for part L17*
G54D11*
G01X24710Y24040D02*
G01X24709Y24079D01*
G01X24706Y24118D01*
G01X24701Y24157D01*
G01X24695Y24196D01*
G01X24687Y24234D01*
G01X24677Y24272D01*
G01X24665Y24310D01*
G01X24652Y24347D01*
G01X24637Y24383D01*
G01X24620Y24418D01*
G01X24602Y24453D01*
G01X24582Y24487D01*
G01X24561Y24520D01*
G01X24538Y24552D01*
G01X24513Y24583D01*
G01X24488Y24612D01*
G01X24461Y24641D01*
G01X24432Y24668D01*
G01X24403Y24693D01*
G01X24372Y24718D01*
G01X24340Y24741D01*
G01X24307Y24762D01*
G01X24273Y24782D01*
G01X24238Y24800D01*
G01X24203Y24817D01*
G01X24167Y24832D01*
G01X24130Y24845D01*
G01X24092Y24857D01*
G01X24054Y24867D01*
G01X24016Y24875D01*
G01X23977Y24881D01*
G01X23938Y24886D01*
G01X23899Y24889D01*
G01X23860Y24890D01*
G01X23860Y23190D02*
G01X23899Y23190D01*
G01X23938Y23193D01*
G01X23977Y23198D01*
G01X24016Y23204D01*
G01X24054Y23212D01*
G01X24092Y23222D01*
G01X24130Y23234D01*
G01X24167Y23247D01*
G01X24203Y23262D01*
G01X24238Y23279D01*
G01X24273Y23297D01*
G01X24307Y23317D01*
G01X24340Y23338D01*
G01X24372Y23361D01*
G01X24403Y23386D01*
G01X24432Y23411D01*
G01X24461Y23438D01*
G01X24488Y23467D01*
G01X24513Y23496D01*
G01X24538Y23527D01*
G01X24561Y23559D01*
G01X24582Y23592D01*
G01X24602Y23626D01*
G01X24620Y23661D01*
G01X24637Y23696D01*
G01X24652Y23732D01*
G01X24665Y23769D01*
G01X24677Y23807D01*
G01X24687Y23845D01*
G01X24695Y23883D01*
G01X24701Y23922D01*
G01X24706Y23961D01*
G01X24709Y24000D01*
G01X24710Y24040D01*
G01X23860Y24890D02*
G01X23820Y24889D01*
G01X23781Y24886D01*
G01X23742Y24881D01*
G01X23703Y24875D01*
G01X23665Y24867D01*
G01X23627Y24857D01*
G01X23589Y24845D01*
G01X23552Y24832D01*
G01X23516Y24817D01*
G01X23481Y24800D01*
G01X23446Y24782D01*
G01X23412Y24762D01*
G01X23379Y24741D01*
G01X23347Y24718D01*
G01X23316Y24693D01*
G01X23287Y24668D01*
G01X23258Y24641D01*
G01X23231Y24612D01*
G01X23206Y24583D01*
G01X23181Y24552D01*
G01X23158Y24520D01*
G01X23137Y24487D01*
G01X23117Y24453D01*
G01X23099Y24418D01*
G01X23082Y24383D01*
G01X23067Y24347D01*
G01X23054Y24310D01*
G01X23042Y24272D01*
G01X23032Y24234D01*
G01X23024Y24196D01*
G01X23018Y24157D01*
G01X23013Y24118D01*
G01X23010Y24079D01*
G01X23010Y24040D01*
G01X23010Y24040D02*
G01X23860Y23190D01*
G04 draw reference designator for part L17*
G54D10*
G01X23500Y24586D02*
G01X23500Y24300D01*
G01X23663Y24300D02*
G01X23500Y24300D01*
G01X23800Y24545D02*
G01X23772Y24531D01*
G01X23840Y24586D02*
G01X23800Y24545D01*
G01X23840Y24586D02*
G01X23840Y24300D01*
G01X24140Y24586D02*
G01X24004Y24300D01*
G01X24140Y24586D02*
G01X23950Y24586D01*
G04 Draw part L18*
G04 draw part outline for part L18*
G54D11*
G01X26810Y24040D02*
G01X26809Y24079D01*
G01X26806Y24118D01*
G01X26801Y24157D01*
G01X26795Y24196D01*
G01X26787Y24234D01*
G01X26777Y24272D01*
G01X26765Y24310D01*
G01X26752Y24347D01*
G01X26737Y24383D01*
G01X26720Y24418D01*
G01X26702Y24453D01*
G01X26682Y24487D01*
G01X26661Y24520D01*
G01X26638Y24552D01*
G01X26613Y24583D01*
G01X26588Y24612D01*
G01X26561Y24641D01*
G01X26532Y24668D01*
G01X26503Y24693D01*
G01X26472Y24718D01*
G01X26440Y24741D01*
G01X26407Y24762D01*
G01X26373Y24782D01*
G01X26338Y24800D01*
G01X26303Y24817D01*
G01X26267Y24832D01*
G01X26230Y24845D01*
G01X26192Y24857D01*
G01X26154Y24867D01*
G01X26116Y24875D01*
G01X26077Y24881D01*
G01X26038Y24886D01*
G01X25999Y24889D01*
G01X25960Y24890D01*
G01X25960Y23190D02*
G01X25999Y23190D01*
G01X26038Y23193D01*
G01X26077Y23198D01*
G01X26116Y23204D01*
G01X26154Y23212D01*
G01X26192Y23222D01*
G01X26230Y23234D01*
G01X26267Y23247D01*
G01X26303Y23262D01*
G01X26338Y23279D01*
G01X26373Y23297D01*
G01X26407Y23317D01*
G01X26440Y23338D01*
G01X26472Y23361D01*
G01X26503Y23386D01*
G01X26532Y23411D01*
G01X26561Y23438D01*
G01X26588Y23467D01*
G01X26613Y23496D01*
G01X26638Y23527D01*
G01X26661Y23559D01*
G01X26682Y23592D01*
G01X26702Y23626D01*
G01X26720Y23661D01*
G01X26737Y23696D01*
G01X26752Y23732D01*
G01X26765Y23769D01*
G01X26777Y23807D01*
G01X26787Y23845D01*
G01X26795Y23883D01*
G01X26801Y23922D01*
G01X26806Y23961D01*
G01X26809Y24000D01*
G01X26810Y24040D01*
G01X25960Y24890D02*
G01X25920Y24889D01*
G01X25881Y24886D01*
G01X25842Y24881D01*
G01X25803Y24875D01*
G01X25765Y24867D01*
G01X25727Y24857D01*
G01X25689Y24845D01*
G01X25652Y24832D01*
G01X25616Y24817D01*
G01X25581Y24800D01*
G01X25546Y24782D01*
G01X25512Y24762D01*
G01X25479Y24741D01*
G01X25447Y24718D01*
G01X25416Y24693D01*
G01X25387Y24668D01*
G01X25358Y24641D01*
G01X25331Y24612D01*
G01X25306Y24583D01*
G01X25281Y24552D01*
G01X25258Y24520D01*
G01X25237Y24487D01*
G01X25217Y24453D01*
G01X25199Y24418D01*
G01X25182Y24383D01*
G01X25167Y24347D01*
G01X25154Y24310D01*
G01X25142Y24272D01*
G01X25132Y24234D01*
G01X25124Y24196D01*
G01X25118Y24157D01*
G01X25113Y24118D01*
G01X25110Y24079D01*
G01X25110Y24040D01*
G01X25110Y24040D02*
G01X25960Y23190D01*
G04 draw reference designator for part L18*
G54D10*
G01X25600Y24586D02*
G01X25600Y24300D01*
G01X25763Y24300D02*
G01X25600Y24300D01*
G01X25900Y24545D02*
G01X25872Y24531D01*
G01X25940Y24586D02*
G01X25900Y24545D01*
G01X25940Y24586D02*
G01X25940Y24300D01*
G01X26118Y24586D02*
G01X26077Y24572D01*
G01X26077Y24572D02*
G01X26063Y24545D01*
G01X26063Y24545D02*
G01X26063Y24518D01*
G01X26063Y24518D02*
G01X26077Y24490D01*
G01X26077Y24490D02*
G01X26104Y24477D01*
G01X26104Y24477D02*
G01X26159Y24463D01*
G01X26159Y24463D02*
G01X26200Y24450D01*
G01X26200Y24450D02*
G01X26227Y24422D01*
G01X26227Y24422D02*
G01X26240Y24395D01*
G01X26240Y24395D02*
G01X26240Y24354D01*
G01X26240Y24354D02*
G01X26227Y24327D01*
G01X26227Y24327D02*
G01X26213Y24313D01*
G01X26213Y24313D02*
G01X26172Y24300D01*
G01X26118Y24300D02*
G01X26172Y24300D01*
G01X26077Y24313D02*
G01X26118Y24300D01*
G01X26063Y24327D02*
G01X26077Y24313D01*
G01X26050Y24354D02*
G01X26063Y24327D01*
G01X26050Y24395D02*
G01X26050Y24354D01*
G01X26063Y24422D02*
G01X26050Y24395D01*
G01X26090Y24450D02*
G01X26063Y24422D01*
G01X26131Y24463D02*
G01X26090Y24450D01*
G01X26186Y24477D02*
G01X26131Y24463D01*
G01X26213Y24490D02*
G01X26186Y24477D01*
G01X26227Y24518D02*
G01X26213Y24490D01*
G01X26227Y24545D02*
G01X26227Y24518D01*
G01X26213Y24572D02*
G01X26227Y24545D01*
G01X26172Y24586D02*
G01X26213Y24572D01*
G01X26118Y24586D02*
G01X26172Y24586D01*
G04 Draw part L19*
G04 draw part outline for part L19*
G54D11*
G01X28910Y24040D02*
G01X28909Y24079D01*
G01X28906Y24118D01*
G01X28901Y24157D01*
G01X28895Y24196D01*
G01X28887Y24234D01*
G01X28877Y24272D01*
G01X28865Y24310D01*
G01X28852Y24347D01*
G01X28837Y24383D01*
G01X28820Y24418D01*
G01X28802Y24453D01*
G01X28782Y24487D01*
G01X28761Y24520D01*
G01X28738Y24552D01*
G01X28713Y24583D01*
G01X28688Y24612D01*
G01X28661Y24641D01*
G01X28632Y24668D01*
G01X28603Y24693D01*
G01X28572Y24718D01*
G01X28540Y24741D01*
G01X28507Y24762D01*
G01X28473Y24782D01*
G01X28438Y24800D01*
G01X28403Y24817D01*
G01X28367Y24832D01*
G01X28330Y24845D01*
G01X28292Y24857D01*
G01X28254Y24867D01*
G01X28216Y24875D01*
G01X28177Y24881D01*
G01X28138Y24886D01*
G01X28099Y24889D01*
G01X28060Y24890D01*
G01X28060Y23190D02*
G01X28099Y23190D01*
G01X28138Y23193D01*
G01X28177Y23198D01*
G01X28216Y23204D01*
G01X28254Y23212D01*
G01X28292Y23222D01*
G01X28330Y23234D01*
G01X28367Y23247D01*
G01X28403Y23262D01*
G01X28438Y23279D01*
G01X28473Y23297D01*
G01X28507Y23317D01*
G01X28540Y23338D01*
G01X28572Y23361D01*
G01X28603Y23386D01*
G01X28632Y23411D01*
G01X28661Y23438D01*
G01X28688Y23467D01*
G01X28713Y23496D01*
G01X28738Y23527D01*
G01X28761Y23559D01*
G01X28782Y23592D01*
G01X28802Y23626D01*
G01X28820Y23661D01*
G01X28837Y23696D01*
G01X28852Y23732D01*
G01X28865Y23769D01*
G01X28877Y23807D01*
G01X28887Y23845D01*
G01X28895Y23883D01*
G01X28901Y23922D01*
G01X28906Y23961D01*
G01X28909Y24000D01*
G01X28910Y24040D01*
G01X28060Y24890D02*
G01X28020Y24889D01*
G01X27981Y24886D01*
G01X27942Y24881D01*
G01X27903Y24875D01*
G01X27865Y24867D01*
G01X27827Y24857D01*
G01X27789Y24845D01*
G01X27752Y24832D01*
G01X27716Y24817D01*
G01X27681Y24800D01*
G01X27646Y24782D01*
G01X27612Y24762D01*
G01X27579Y24741D01*
G01X27547Y24718D01*
G01X27516Y24693D01*
G01X27487Y24668D01*
G01X27458Y24641D01*
G01X27431Y24612D01*
G01X27406Y24583D01*
G01X27381Y24552D01*
G01X27358Y24520D01*
G01X27337Y24487D01*
G01X27317Y24453D01*
G01X27299Y24418D01*
G01X27282Y24383D01*
G01X27267Y24347D01*
G01X27254Y24310D01*
G01X27242Y24272D01*
G01X27232Y24234D01*
G01X27224Y24196D01*
G01X27218Y24157D01*
G01X27213Y24118D01*
G01X27210Y24079D01*
G01X27210Y24040D01*
G01X27210Y24040D02*
G01X28060Y23190D01*
G04 draw reference designator for part L19*
G54D10*
G01X27700Y24586D02*
G01X27700Y24300D01*
G01X27863Y24300D02*
G01X27700Y24300D01*
G01X28000Y24545D02*
G01X27972Y24531D01*
G01X28040Y24586D02*
G01X28000Y24545D01*
G01X28040Y24586D02*
G01X28040Y24300D01*
G01X28327Y24490D02*
G01X28313Y24450D01*
G01X28313Y24450D02*
G01X28286Y24422D01*
G01X28286Y24422D02*
G01X28245Y24409D01*
G01X28231Y24409D02*
G01X28245Y24409D01*
G01X28190Y24422D02*
G01X28231Y24409D01*
G01X28163Y24450D02*
G01X28190Y24422D01*
G01X28150Y24490D02*
G01X28163Y24450D01*
G01X28150Y24504D02*
G01X28150Y24490D01*
G01X28163Y24545D02*
G01X28150Y24504D01*
G01X28190Y24572D02*
G01X28163Y24545D01*
G01X28231Y24586D02*
G01X28190Y24572D01*
G01X28245Y24586D02*
G01X28231Y24586D01*
G01X28245Y24586D02*
G01X28286Y24572D01*
G01X28286Y24572D02*
G01X28313Y24545D01*
G01X28313Y24545D02*
G01X28327Y24490D01*
G01X28327Y24490D02*
G01X28327Y24422D01*
G01X28327Y24422D02*
G01X28313Y24354D01*
G01X28313Y24354D02*
G01X28286Y24313D01*
G01X28286Y24313D02*
G01X28245Y24300D01*
G01X28218Y24300D02*
G01X28245Y24300D01*
G01X28177Y24313D02*
G01X28218Y24300D01*
G01X28163Y24340D02*
G01X28177Y24313D01*
G04 Draw part L20*
G04 draw part outline for part L20*
G54D11*
G01X31010Y24040D02*
G01X31009Y24079D01*
G01X31006Y24118D01*
G01X31001Y24157D01*
G01X30995Y24196D01*
G01X30987Y24234D01*
G01X30977Y24272D01*
G01X30965Y24310D01*
G01X30952Y24347D01*
G01X30937Y24383D01*
G01X30920Y24418D01*
G01X30902Y24453D01*
G01X30882Y24487D01*
G01X30861Y24520D01*
G01X30838Y24552D01*
G01X30813Y24583D01*
G01X30788Y24612D01*
G01X30761Y24641D01*
G01X30732Y24668D01*
G01X30703Y24693D01*
G01X30672Y24718D01*
G01X30640Y24741D01*
G01X30607Y24762D01*
G01X30573Y24782D01*
G01X30538Y24800D01*
G01X30503Y24817D01*
G01X30467Y24832D01*
G01X30430Y24845D01*
G01X30392Y24857D01*
G01X30354Y24867D01*
G01X30316Y24875D01*
G01X30277Y24881D01*
G01X30238Y24886D01*
G01X30199Y24889D01*
G01X30160Y24890D01*
G01X30160Y23190D02*
G01X30199Y23190D01*
G01X30238Y23193D01*
G01X30277Y23198D01*
G01X30316Y23204D01*
G01X30354Y23212D01*
G01X30392Y23222D01*
G01X30430Y23234D01*
G01X30467Y23247D01*
G01X30503Y23262D01*
G01X30538Y23279D01*
G01X30573Y23297D01*
G01X30607Y23317D01*
G01X30640Y23338D01*
G01X30672Y23361D01*
G01X30703Y23386D01*
G01X30732Y23411D01*
G01X30761Y23438D01*
G01X30788Y23467D01*
G01X30813Y23496D01*
G01X30838Y23527D01*
G01X30861Y23559D01*
G01X30882Y23592D01*
G01X30902Y23626D01*
G01X30920Y23661D01*
G01X30937Y23696D01*
G01X30952Y23732D01*
G01X30965Y23769D01*
G01X30977Y23807D01*
G01X30987Y23845D01*
G01X30995Y23883D01*
G01X31001Y23922D01*
G01X31006Y23961D01*
G01X31009Y24000D01*
G01X31010Y24040D01*
G01X30160Y24890D02*
G01X30120Y24889D01*
G01X30081Y24886D01*
G01X30042Y24881D01*
G01X30003Y24875D01*
G01X29965Y24867D01*
G01X29927Y24857D01*
G01X29889Y24845D01*
G01X29852Y24832D01*
G01X29816Y24817D01*
G01X29781Y24800D01*
G01X29746Y24782D01*
G01X29712Y24762D01*
G01X29679Y24741D01*
G01X29647Y24718D01*
G01X29616Y24693D01*
G01X29587Y24668D01*
G01X29558Y24641D01*
G01X29531Y24612D01*
G01X29506Y24583D01*
G01X29481Y24552D01*
G01X29458Y24520D01*
G01X29437Y24487D01*
G01X29417Y24453D01*
G01X29399Y24418D01*
G01X29382Y24383D01*
G01X29367Y24347D01*
G01X29354Y24310D01*
G01X29342Y24272D01*
G01X29332Y24234D01*
G01X29324Y24196D01*
G01X29318Y24157D01*
G01X29313Y24118D01*
G01X29310Y24079D01*
G01X29310Y24040D01*
G01X29310Y24040D02*
G01X30160Y23190D01*
G04 draw reference designator for part L20*
G54D10*
G01X29800Y24586D02*
G01X29800Y24300D01*
G01X29963Y24300D02*
G01X29800Y24300D01*
G01X30086Y24531D02*
G01X30086Y24518D01*
G01X30100Y24559D02*
G01X30086Y24531D01*
G01X30113Y24572D02*
G01X30100Y24559D01*
G01X30140Y24586D02*
G01X30113Y24572D01*
G01X30195Y24586D02*
G01X30140Y24586D01*
G01X30195Y24586D02*
G01X30222Y24572D01*
G01X30222Y24572D02*
G01X30236Y24559D01*
G01X30236Y24559D02*
G01X30250Y24531D01*
G01X30250Y24531D02*
G01X30250Y24504D01*
G01X30250Y24504D02*
G01X30236Y24477D01*
G01X30236Y24477D02*
G01X30209Y24436D01*
G01X30209Y24436D02*
G01X30072Y24300D01*
G01X30263Y24300D02*
G01X30072Y24300D01*
G01X30454Y24586D02*
G01X30413Y24572D01*
G01X30413Y24572D02*
G01X30386Y24531D01*
G01X30386Y24531D02*
G01X30372Y24463D01*
G01X30372Y24463D02*
G01X30372Y24422D01*
G01X30372Y24422D02*
G01X30386Y24354D01*
G01X30386Y24354D02*
G01X30413Y24313D01*
G01X30413Y24313D02*
G01X30454Y24300D01*
G01X30481Y24300D02*
G01X30454Y24300D01*
G01X30522Y24313D02*
G01X30481Y24300D01*
G01X30550Y24354D02*
G01X30522Y24313D01*
G01X30563Y24422D02*
G01X30550Y24354D01*
G01X30563Y24463D02*
G01X30563Y24422D01*
G01X30550Y24531D02*
G01X30563Y24463D01*
G01X30522Y24572D02*
G01X30550Y24531D01*
G01X30481Y24586D02*
G01X30522Y24572D01*
G01X30454Y24586D02*
G01X30481Y24586D01*
G04 Draw part H1*
G04 Draw part C1*
G04 Draw part C2*
G04 Draw part R1*
G04 Draw part SW1*
G04 Draw part LED*

G04 Draw traces*

G04 Draw Text*
M00*
M02*
