G04 FreePCB version 1.359*
G04 Y:\Documents\R2D2 Build\PCB Files\RSeries Data Port\RSeries Data Port v4 CAM\bottom_copper.grb*
G04 bottom copper layer *
G04 Scale: 100 percent, Rotated: No, Reflected: No *
%FSLAX24Y24*%
%MOIN*%
%LN bottom copper *%
G04 Rounded Rectangle Macro, params: W/2, H/2, R *
%AMRNDREC*
21,1,$1+$1,$2+$2-$3-$3,0,0,0*
21,1,$1+$1-$3-$3,$2+$2,0,0,0*
1,1,$3+$3,$1-$3,$2-$3*
1,1,$3+$3,$3-$1,$2-$3*
1,1,$3+$3,$1-$3,$3-$2*
1,1,$3+$3,$3-$1,$3-$2*%
G04 Rectangular Thermal Macro, params: W/2, H/2, T/2 *
%AMRECTHERM*
$4=$3/2*
21,1,$1-$3,$2-$3,0-$1/2-$4,0-$2/2-$4,0*
21,1,$1-$3,$2-$3,0-$1/2-$4,$2/2+$4,0*
21,1,$1-$3,$2-$3,$1/2+$4,0-$2/2-$4,0*
21,1,$1-$3,$2-$3,$1/2+$4,$2/2+$4,0*%
%ADD10C,0.005000*%
%ADD11R,0.055000X0.055000*%
%ADD12C,0.055000*%
%ADD13C,0.050000*%
%ADD14R,0.060000X0.060000*%
%ADD15C,0.060000*%
%ADD16C,0.075000*%
%ADD17R,0.050000X0.050000*%
%ADD18C,0.010000*%
G90*
G70D02*

G04 Step and Repeat for panelization *

G04 ----------------------- Draw board outline (positive)*
%LPD*%
G54D10*
G01X3000Y52000D02*
G01X23000Y52000D01*
G04 end of side 1*
G01X25000Y50000D01*
G04 end of side 2*
G01X25000Y5000D01*
G04 end of side 3*
G01X22000Y2000D01*
G04 end of side 4*
G01X5000Y2000D01*
G04 end of side 5*
G01X3000Y4000D01*
G04 end of side 6*
G01X3000Y11000D01*
G04 end of side 7*
G01X5000Y13000D01*
G04 end of side 8*
G01X15000Y13000D01*
G04 end of side 9*
G01X17000Y15000D01*
G04 end of side 10*
G01X17000Y34000D01*
G04 end of side 11*
G01X15000Y36000D01*
G04 end of side 12*
G01X3000Y36000D01*
G04 end of side 13*
G01X1000Y38000D01*
G04 end of side 14*
G01X1000Y50000D01*
G04 end of side 15*
G01X3000Y52000D01*

G04 -------------- Draw Parts, Pads, Traces, Vias and Text (positive)*
%LPD*%
G04 Draw part IC1*
G54D11*
G01X24000Y7100D03*
G54D12*
G01X23000Y7100D03*
G01X22000Y7100D03*
G01X21000Y7100D03*
G01X20000Y7100D03*
G01X19000Y7100D03*
G01X18000Y7100D03*
G01X17000Y7100D03*
G01X16000Y7100D03*
G01X15000Y7100D03*
G01X14000Y7100D03*
G01X13000Y7100D03*
G01X13000Y10100D03*
G01X14000Y10100D03*
G01X15000Y10100D03*
G01X16000Y10100D03*
G01X17000Y10100D03*
G01X18000Y10100D03*
G01X19000Y10100D03*
G01X20000Y10100D03*
G01X21000Y10100D03*
G01X22000Y10100D03*
G01X23000Y10100D03*
G01X24000Y10100D03*
G04 Draw part L1*
G54D13*
G01X18710Y49000D03*
G01X18000Y48290D03*
G04 Draw part L11*
G01X5310Y11000D03*
G01X4600Y10290D03*
G04 Draw part L12*
G01X8110Y11000D03*
G01X7400Y10290D03*
G04 Draw part L13*
G01X11110Y11000D03*
G01X10400Y10290D03*
G04 Draw part L14*
G01X5310Y5000D03*
G01X4600Y4290D03*
G04 Draw part L15*
G01X8110Y5000D03*
G01X7400Y4290D03*
G04 Draw part L16*
G01X11110Y5000D03*
G01X10400Y4290D03*
G04 Draw part H1*
G54D14*
G01X21000Y4850D03*
G54D15*
G01X21000Y5850D03*
G01X20000Y4850D03*
G01X20000Y5850D03*
G01X19000Y4850D03*
G01X19000Y5850D03*
G01X18000Y4850D03*
G01X18000Y5850D03*
G01X17000Y4850D03*
G01X17000Y5850D03*
G04 Draw part C1*
G54D16*
G01X15500Y5800D03*
G01X13500Y5800D03*
G04 Draw part C2*
G01X15500Y4300D03*
G01X13500Y4300D03*
G04 Draw part R1*
G01X22300Y11500D03*
G01X18300Y11500D03*
G04 Draw part L2*
G54D13*
G01X18710Y45800D03*
G01X18000Y45090D03*
G04 Draw part L3*
G01X18710Y42600D03*
G01X18000Y41890D03*
G04 Draw part L4*
G01X18710Y39200D03*
G01X18000Y38490D03*
G04 Draw part L5*
G01X18710Y36000D03*
G01X18000Y35290D03*
G04 Draw part L6*
G01X18710Y32700D03*
G01X18000Y31990D03*
G04 Draw part L17*
G01X19710Y24000D03*
G01X19000Y23290D03*
G04 Draw part L18*
G01X24110Y24000D03*
G01X23400Y23290D03*
G04 Draw part LB1*
G54D17*
G01X20700Y48000D03*
G54D13*
G01X20700Y50000D03*
G01X21700Y50000D03*
G01X22700Y48000D03*
G01X22700Y50000D03*
G04 Draw part LB2*
G54D17*
G01X20700Y44600D03*
G54D13*
G01X20700Y46600D03*
G01X21700Y46600D03*
G01X22700Y44600D03*
G01X22700Y46600D03*
G04 Draw part LB3*
G54D17*
G01X20700Y41400D03*
G54D13*
G01X20700Y43400D03*
G01X21700Y43400D03*
G01X22700Y41400D03*
G01X22700Y43400D03*
G04 Draw part LB4*
G54D17*
G01X20600Y38200D03*
G54D13*
G01X20600Y40200D03*
G01X21600Y40200D03*
G01X22600Y38200D03*
G01X22600Y40200D03*
G04 Draw part LB5*
G54D17*
G01X20600Y34800D03*
G54D13*
G01X20600Y36800D03*
G01X21600Y36800D03*
G01X22600Y34800D03*
G01X22600Y36800D03*
G04 Draw part LB6*
G54D17*
G01X20600Y31200D03*
G54D13*
G01X20600Y33200D03*
G01X21600Y33200D03*
G01X22600Y31200D03*
G01X22600Y33200D03*
G04 Draw part LB7*
G54D17*
G01X5200Y48800D03*
G54D13*
G01X3200Y48800D03*
G01X3200Y49800D03*
G01X5200Y50800D03*
G01X3200Y50800D03*
G04 Draw part LB8*
G54D17*
G01X8200Y48800D03*
G54D13*
G01X6200Y48800D03*
G01X6200Y49800D03*
G01X8200Y50800D03*
G01X6200Y50800D03*
G04 Draw part LB9*
G54D17*
G01X11200Y48800D03*
G54D13*
G01X9200Y48800D03*
G01X9200Y49800D03*
G01X11200Y50800D03*
G01X9200Y50800D03*
G04 Draw part LB10*
G54D17*
G01X5200Y38000D03*
G54D13*
G01X3200Y38000D03*
G01X3200Y39000D03*
G01X5200Y40000D03*
G01X3200Y40000D03*
G04 Draw part LB11*
G54D17*
G01X8200Y38000D03*
G54D13*
G01X6200Y38000D03*
G01X6200Y39000D03*
G01X8200Y40000D03*
G01X6200Y40000D03*
G04 Draw part LB12*
G54D17*
G01X11200Y38000D03*
G54D13*
G01X9200Y38000D03*
G01X9200Y39000D03*
G01X11200Y40000D03*
G01X9200Y40000D03*

G04 Draw traces*
G54D18*
G01X8110Y11000D02*
G01X10400Y11000D01*
G01X10400Y11000D02*
G01X10861Y10538D01*
G01X10861Y10538D02*
G01X13561Y10538D01*
G01X13561Y10538D02*
G01X14000Y10100D01*
G01X6200Y48800D02*
G01X9200Y45800D01*
G01X9200Y45800D02*
G01X18710Y45800D01*
G01X22700Y44600D02*
G01X20700Y46600D01*
G01X17000Y4850D02*
G01X17500Y5350D01*
G01X17500Y5350D02*
G01X21931Y5350D01*
G01X21931Y5350D02*
G01X23574Y6993D01*
G01X23574Y6993D02*
G01X23574Y7100D01*
G01X23574Y7100D02*
G01X24000Y7100D01*
G01X20000Y4850D02*
G01X19450Y4300D01*
G01X19450Y4300D02*
G01X15500Y4300D01*
G01X3200Y38000D02*
G01X4965Y36234D01*
G01X4965Y36234D02*
G01X15047Y36234D01*
G01X15047Y36234D02*
G01X17571Y33710D01*
G01X17571Y33710D02*
G01X17571Y31264D01*
G01X17571Y31264D02*
G01X24511Y24324D01*
G01X24511Y24324D02*
G01X24511Y23800D01*
G01X24511Y23800D02*
G01X24268Y23556D01*
G01X24268Y23556D02*
G01X23843Y23556D01*
G01X23843Y23556D02*
G01X23661Y23739D01*
G01X23661Y23739D02*
G01X23259Y23739D01*
G01X23259Y23739D02*
G01X21700Y22180D01*
G01X21700Y22180D02*
G01X21700Y10728D01*
G01X21700Y10728D02*
G01X21700Y10399D01*
G01X21700Y10399D02*
G01X22000Y10100D01*
G01X22700Y48000D02*
G01X20700Y50000D01*
G01X5310Y11000D02*
G01X4690Y11000D01*
G01X4690Y11000D02*
G01X4156Y10465D01*
G01X4156Y10465D02*
G01X4156Y10162D01*
G01X4156Y10162D02*
G01X4900Y9418D01*
G01X4900Y9418D02*
G01X17970Y9418D01*
G01X17970Y9418D02*
G01X18500Y9948D01*
G01X18500Y9948D02*
G01X18500Y10221D01*
G01X18500Y10221D02*
G01X19006Y10728D01*
G01X19006Y10728D02*
G01X21700Y10728D01*
G01X11110Y11000D02*
G01X15100Y11000D01*
G01X15100Y11000D02*
G01X16000Y10100D01*
G01X20700Y43400D02*
G01X19900Y42600D01*
G01X19900Y42600D02*
G01X18710Y42600D01*
G01X5310Y5000D02*
G01X9430Y9120D01*
G01X9430Y9120D02*
G01X19020Y9120D01*
G01X19020Y9120D02*
G01X20000Y10100D01*
G01X11200Y40000D02*
G01X17910Y40000D01*
G01X17910Y40000D02*
G01X18710Y39200D01*
G01X20600Y40200D02*
G01X19710Y40200D01*
G01X19710Y40200D02*
G01X18710Y39200D01*
G01X11110Y5000D02*
G01X11110Y5838D01*
G01X11110Y5838D02*
G01X13252Y7981D01*
G01X13252Y7981D02*
G01X18598Y7981D01*
G01X18598Y7981D02*
G01X19780Y9163D01*
G01X19780Y9163D02*
G01X20063Y9163D01*
G01X20063Y9163D02*
G01X21000Y10100D01*
G01X5200Y50800D02*
G01X4783Y50383D01*
G01X4783Y50383D02*
G01X4783Y40817D01*
G01X4783Y40817D02*
G01X5200Y40400D01*
G01X5200Y40400D02*
G01X6396Y40400D01*
G01X6396Y40400D02*
G01X7426Y39370D01*
G01X7426Y39370D02*
G01X7426Y38042D01*
G01X7426Y38042D02*
G01X8424Y37044D01*
G01X8424Y37044D02*
G01X14578Y37044D01*
G01X14578Y37044D02*
G01X18710Y32912D01*
G01X18710Y32912D02*
G01X18710Y32700D01*
G01X22600Y31200D02*
G01X20600Y33200D01*
G01X20600Y33200D02*
G01X20312Y32912D01*
G01X20312Y32912D02*
G01X18710Y32912D01*
G01X5200Y40000D02*
G01X5200Y40400D01*
G01X5200Y40400D02*
G01X5200Y40400D01*
G01X19710Y24000D02*
G01X19710Y15274D01*
G01X19710Y15274D02*
G01X16500Y12064D01*
G01X16500Y12064D02*
G01X16500Y9991D01*
G01X16500Y9991D02*
G01X16127Y9618D01*
G01X16127Y9618D02*
G01X15481Y9618D01*
G01X15481Y9618D02*
G01X15000Y10100D01*
G01X24110Y24000D02*
G01X19710Y24000D01*
G01X8110Y5000D02*
G01X11937Y8827D01*
G01X11937Y8827D02*
G01X19082Y8827D01*
G01X19082Y8827D02*
G01X19642Y9387D01*
G01X19642Y9387D02*
G01X19925Y9387D01*
G01X19925Y9387D02*
G01X20558Y10020D01*
G01X20558Y10020D02*
G01X20558Y10259D01*
G01X20558Y10259D02*
G01X20823Y10525D01*
G01X20823Y10525D02*
G01X21234Y10525D01*
G01X21234Y10525D02*
G01X21500Y10259D01*
G01X21500Y10259D02*
G01X21500Y9957D01*
G01X21500Y9957D02*
G01X21791Y9665D01*
G01X21791Y9665D02*
G01X22565Y9665D01*
G01X22565Y9665D02*
G01X23000Y10100D01*
G01X20600Y36800D02*
G01X19610Y36800D01*
G01X19610Y36800D02*
G01X19560Y36850D01*
G01X19560Y36850D02*
G01X18710Y36000D01*
G01X22600Y34800D02*
G01X20600Y36800D01*
G01X8200Y40000D02*
G01X8607Y40407D01*
G01X8607Y40407D02*
G01X9573Y40407D01*
G01X9573Y40407D02*
G01X10564Y39415D01*
G01X10564Y39415D02*
G01X17685Y39415D01*
G01X17685Y39415D02*
G01X19560Y37541D01*
G01X19560Y37541D02*
G01X19560Y36850D01*
G01X8200Y48800D02*
G01X7799Y48800D01*
G01X7799Y48800D02*
G01X7399Y49200D01*
G01X7399Y49200D02*
G01X6004Y49200D01*
G01X6004Y49200D02*
G01X5802Y49402D01*
G01X5802Y49402D02*
G01X5600Y49200D01*
G01X5600Y49200D02*
G01X5200Y49200D01*
G01X5200Y49200D02*
G01X5200Y48800D01*
G01X9200Y50800D02*
G01X9600Y50399D01*
G01X9600Y50399D02*
G01X9600Y49224D01*
G01X9600Y49224D02*
G01X9024Y49224D01*
G01X9024Y49224D02*
G01X8600Y48800D01*
G01X8600Y48800D02*
G01X8200Y48800D01*
G01X3200Y50800D02*
G01X3632Y51232D01*
G01X3632Y51232D02*
G01X5767Y51232D01*
G01X5767Y51232D02*
G01X6200Y50800D01*
G01X6200Y50800D02*
G01X6200Y50365D01*
G01X6200Y50365D02*
G01X5731Y49897D01*
G01X5731Y49897D02*
G01X5731Y49473D01*
G01X5731Y49473D02*
G01X5802Y49402D01*
G01X11200Y48800D02*
G01X10799Y48800D01*
G01X10799Y48800D02*
G01X10375Y49224D01*
G01X10375Y49224D02*
G01X9600Y49224D01*
G01X17000Y5850D02*
G01X17363Y5850D01*
G01X17363Y5850D02*
G01X18500Y6986D01*
G01X18500Y6986D02*
G01X18500Y7211D01*
G01X18500Y7211D02*
G01X19094Y7806D01*
G01X19094Y7806D02*
G01X21706Y7806D01*
G01X21706Y7806D02*
G01X21706Y7806D01*
G01X21706Y7806D02*
G01X24000Y10100D01*
G01X13500Y5800D02*
G01X14700Y5800D01*
G01X14700Y5800D02*
G01X16000Y7100D01*
G01X13500Y4300D02*
G01X14025Y3774D01*
G01X14025Y3774D02*
G01X19587Y3774D01*
G01X19587Y3774D02*
G01X20549Y4737D01*
G01X20549Y4737D02*
G01X20549Y4850D01*
G01X20549Y4850D02*
G01X21000Y4850D01*
G01X13500Y4300D02*
G01X13500Y5800D01*
G01X8200Y38000D02*
G01X8600Y38000D01*
G01X8600Y38000D02*
G01X9150Y38550D01*
G01X9150Y38550D02*
G01X9600Y38550D01*
G01X9600Y38550D02*
G01X10249Y38550D01*
G01X10249Y38550D02*
G01X10799Y38000D01*
G01X10799Y38000D02*
G01X11200Y38000D01*
G01X5200Y38000D02*
G01X5200Y39000D01*
G01X5200Y39000D02*
G01X6200Y40000D01*
G01X3200Y40000D02*
G01X4200Y39000D01*
G01X4200Y39000D02*
G01X5200Y39000D01*
G01X9200Y40000D02*
G01X9600Y39599D01*
G01X9600Y39599D02*
G01X9600Y38550D01*
G01X18000Y31990D02*
G01X24711Y25278D01*
G01X24711Y25278D02*
G01X24711Y8811D01*
G01X24711Y8811D02*
G01X23000Y7100D01*
G01X18000Y41890D02*
G01X18000Y45090D01*
G01X18000Y35290D02*
G01X18000Y38490D01*
G01X10400Y4290D02*
G01X11190Y4290D01*
G01X11190Y4290D02*
G01X14000Y7100D01*
G01X7400Y10290D02*
G01X4600Y10290D01*
G01X10400Y10290D02*
G01X7400Y10290D01*
G01X7400Y4290D02*
G01X4600Y4290D01*
G01X10400Y4290D02*
G01X7400Y4290D01*
G01X20600Y38200D02*
G01X20600Y38600D01*
G01X20600Y38600D02*
G01X21100Y39100D01*
G01X21100Y39100D02*
G01X21100Y40599D01*
G01X21100Y40599D02*
G01X20700Y40999D01*
G01X20700Y40999D02*
G01X20700Y41400D01*
G01X23400Y23290D02*
G01X23455Y23234D01*
G01X23455Y23234D02*
G01X23455Y9936D01*
G01X23455Y9936D02*
G01X22374Y8855D01*
G01X22374Y8855D02*
G01X19755Y8855D01*
G01X19755Y8855D02*
G01X18000Y7100D01*
G01X22600Y36800D02*
G01X23048Y36351D01*
G01X23048Y36351D02*
G01X23048Y33648D01*
G01X23048Y33648D02*
G01X22600Y33200D01*
G01X22700Y43400D02*
G01X22287Y42987D01*
G01X22287Y42987D02*
G01X22287Y40512D01*
G01X22287Y40512D02*
G01X22600Y40200D01*
G01X22700Y46600D02*
G01X23100Y46199D01*
G01X23100Y46199D02*
G01X23100Y43800D01*
G01X23100Y43800D02*
G01X22700Y43400D01*
G01X22700Y50000D02*
G01X23114Y49585D01*
G01X23114Y49585D02*
G01X23114Y47014D01*
G01X23114Y47014D02*
G01X22700Y46600D01*

G04 Draw Text*
M00*
M02*
