G04 FreePCB version 1.359*
G04 Y:\Documents\R2D2 Build\PCB Files\RSeries Data Port\RSeries Data Port v4 CAM\top_solder_mask.grb*
G04 top solder mask layer *
G04 Scale: 100 percent, Rotated: No, Reflected: No *
%FSLAX24Y24*%
%MOIN*%
%LN top solder mask *%
G04 Rounded Rectangle Macro, params: W/2, H/2, R *
%AMRNDREC*
21,1,$1+$1,$2+$2-$3-$3,0,0,0*
21,1,$1+$1-$3-$3,$2+$2,0,0,0*
1,1,$3+$3,$1-$3,$2-$3*
1,1,$3+$3,$3-$1,$2-$3*
1,1,$3+$3,$1-$3,$3-$2*
1,1,$3+$3,$3-$1,$3-$2*%
G04 Rectangular Thermal Macro, params: W/2, H/2, T/2 *
%AMRECTHERM*
$4=$3/2*
21,1,$1-$3,$2-$3,0-$1/2-$4,0-$2/2-$4,0*
21,1,$1-$3,$2-$3,0-$1/2-$4,$2/2+$4,0*
21,1,$1-$3,$2-$3,$1/2+$4,0-$2/2-$4,0*
21,1,$1-$3,$2-$3,$1/2+$4,$2/2+$4,0*%
%ADD10C,0.005000*%
%ADD11R,0.071000X0.071000*%
%ADD12C,0.071000*%
%ADD13C,0.066000*%
%ADD14R,0.076000X0.076000*%
%ADD15C,0.076000*%
%ADD16C,0.091000*%
%ADD17R,0.066000X0.066000*%
G90*
G70D02*

G04 Step and Repeat for panelization *

G04 ----------------------- Draw board outline (positive)*
%LPD*%
G54D10*
G01X3000Y52000D02*
G01X23000Y52000D01*
G04 end of side 1*
G01X25000Y50000D01*
G04 end of side 2*
G01X25000Y5000D01*
G04 end of side 3*
G01X22000Y2000D01*
G04 end of side 4*
G01X5000Y2000D01*
G04 end of side 5*
G01X3000Y4000D01*
G04 end of side 6*
G01X3000Y11000D01*
G04 end of side 7*
G01X5000Y13000D01*
G04 end of side 8*
G01X15000Y13000D01*
G04 end of side 9*
G01X17000Y15000D01*
G04 end of side 10*
G01X17000Y34000D01*
G04 end of side 11*
G01X15000Y36000D01*
G04 end of side 12*
G01X3000Y36000D01*
G04 end of side 13*
G01X1000Y38000D01*
G04 end of side 14*
G01X1000Y50000D01*
G04 end of side 15*
G01X3000Y52000D01*

G04 -------------- Draw Parts, Pads, Traces, Vias and Text (positive)*
%LPD*%
G04 Draw part IC1*
G54D11*
G01X24000Y7100D03*
G54D12*
G01X23000Y7100D03*
G01X22000Y7100D03*
G01X21000Y7100D03*
G01X20000Y7100D03*
G01X19000Y7100D03*
G01X18000Y7100D03*
G01X17000Y7100D03*
G01X16000Y7100D03*
G01X15000Y7100D03*
G01X14000Y7100D03*
G01X13000Y7100D03*
G01X13000Y10100D03*
G01X14000Y10100D03*
G01X15000Y10100D03*
G01X16000Y10100D03*
G01X17000Y10100D03*
G01X18000Y10100D03*
G01X19000Y10100D03*
G01X20000Y10100D03*
G01X21000Y10100D03*
G01X22000Y10100D03*
G01X23000Y10100D03*
G01X24000Y10100D03*
G04 Draw part L1*
G54D13*
G01X18710Y49000D03*
G01X18000Y48290D03*
G04 Draw part L11*
G01X5310Y11000D03*
G01X4600Y10290D03*
G04 Draw part L12*
G01X8110Y11000D03*
G01X7400Y10290D03*
G04 Draw part L13*
G01X11110Y11000D03*
G01X10400Y10290D03*
G04 Draw part L14*
G01X5310Y5000D03*
G01X4600Y4290D03*
G04 Draw part L15*
G01X8110Y5000D03*
G01X7400Y4290D03*
G04 Draw part L16*
G01X11110Y5000D03*
G01X10400Y4290D03*
G04 Draw part H1*
G54D14*
G01X21000Y4850D03*
G54D15*
G01X21000Y5850D03*
G01X20000Y4850D03*
G01X20000Y5850D03*
G01X19000Y4850D03*
G01X19000Y5850D03*
G01X18000Y4850D03*
G01X18000Y5850D03*
G01X17000Y4850D03*
G01X17000Y5850D03*
G04 Draw part C1*
G54D16*
G01X15500Y5800D03*
G01X13500Y5800D03*
G04 Draw part C2*
G01X15500Y4300D03*
G01X13500Y4300D03*
G04 Draw part R1*
G01X22300Y11500D03*
G01X18300Y11500D03*
G04 Draw part L2*
G54D13*
G01X18710Y45800D03*
G01X18000Y45090D03*
G04 Draw part L3*
G01X18710Y42600D03*
G01X18000Y41890D03*
G04 Draw part L4*
G01X18710Y39200D03*
G01X18000Y38490D03*
G04 Draw part L5*
G01X18710Y36000D03*
G01X18000Y35290D03*
G04 Draw part L6*
G01X18710Y32700D03*
G01X18000Y31990D03*
G04 Draw part L17*
G01X19710Y24000D03*
G01X19000Y23290D03*
G04 Draw part L18*
G01X24110Y24000D03*
G01X23400Y23290D03*
G04 Draw part LB1*
G54D17*
G01X20700Y48000D03*
G54D13*
G01X20700Y50000D03*
G01X21700Y50000D03*
G01X22700Y48000D03*
G01X22700Y50000D03*
G04 Draw part LB2*
G54D17*
G01X20700Y44600D03*
G54D13*
G01X20700Y46600D03*
G01X21700Y46600D03*
G01X22700Y44600D03*
G01X22700Y46600D03*
G04 Draw part LB3*
G54D17*
G01X20700Y41400D03*
G54D13*
G01X20700Y43400D03*
G01X21700Y43400D03*
G01X22700Y41400D03*
G01X22700Y43400D03*
G04 Draw part LB4*
G54D17*
G01X20600Y38200D03*
G54D13*
G01X20600Y40200D03*
G01X21600Y40200D03*
G01X22600Y38200D03*
G01X22600Y40200D03*
G04 Draw part LB5*
G54D17*
G01X20600Y34800D03*
G54D13*
G01X20600Y36800D03*
G01X21600Y36800D03*
G01X22600Y34800D03*
G01X22600Y36800D03*
G04 Draw part LB6*
G54D17*
G01X20600Y31200D03*
G54D13*
G01X20600Y33200D03*
G01X21600Y33200D03*
G01X22600Y31200D03*
G01X22600Y33200D03*
G04 Draw part LB7*
G54D17*
G01X5200Y48800D03*
G54D13*
G01X3200Y48800D03*
G01X3200Y49800D03*
G01X5200Y50800D03*
G01X3200Y50800D03*
G04 Draw part LB8*
G54D17*
G01X8200Y48800D03*
G54D13*
G01X6200Y48800D03*
G01X6200Y49800D03*
G01X8200Y50800D03*
G01X6200Y50800D03*
G04 Draw part LB9*
G54D17*
G01X11200Y48800D03*
G54D13*
G01X9200Y48800D03*
G01X9200Y49800D03*
G01X11200Y50800D03*
G01X9200Y50800D03*
G04 Draw part LB10*
G54D17*
G01X5200Y38000D03*
G54D13*
G01X3200Y38000D03*
G01X3200Y39000D03*
G01X5200Y40000D03*
G01X3200Y40000D03*
G04 Draw part LB11*
G54D17*
G01X8200Y38000D03*
G54D13*
G01X6200Y38000D03*
G01X6200Y39000D03*
G01X8200Y40000D03*
G01X6200Y40000D03*
G04 Draw part LB12*
G54D17*
G01X11200Y38000D03*
G54D13*
G01X9200Y38000D03*
G01X9200Y39000D03*
G01X11200Y40000D03*
G01X9200Y40000D03*

G04 Draw traces*

G04 Draw Text*

G04 Draw solder mask cutouts*
M00*
M02*
