G04 FreePCB version 1.359*
G04 Y:\Documents\R2D2 Build\PCB Files\Charging Bay Indicators\RSeries CBI v3 CAM\bottom_solder_mask.grb*
G04 bottom solder mask layer *
G04 Scale: 100 percent, Rotated: No, Reflected: No *
%FSLAX24Y24*%
%MOIN*%
%LN bottom solder mask *%
G04 Rounded Rectangle Macro, params: W/2, H/2, R *
%AMRNDREC*
21,1,$1+$1,$2+$2-$3-$3,0,0,0*
21,1,$1+$1-$3-$3,$2+$2,0,0,0*
1,1,$3+$3,$1-$3,$2-$3*
1,1,$3+$3,$3-$1,$2-$3*
1,1,$3+$3,$1-$3,$3-$2*
1,1,$3+$3,$3-$1,$3-$2*%
G04 Rectangular Thermal Macro, params: W/2, H/2, T/2 *
%AMRECTHERM*
$4=$3/2*
21,1,$1-$3,$2-$3,0-$1/2-$4,0-$2/2-$4,0*
21,1,$1-$3,$2-$3,0-$1/2-$4,$2/2+$4,0*
21,1,$1-$3,$2-$3,$1/2+$4,0-$2/2-$4,0*
21,1,$1-$3,$2-$3,$1/2+$4,$2/2+$4,0*%
%ADD10C,0.005000*%
%ADD11R,0.071000X0.071000*%
%ADD12C,0.071000*%
%ADD13C,0.066000*%
%ADD14R,0.076000X0.076000*%
%ADD15C,0.076000*%
%ADD16C,0.091000*%
G90*
G70D02*

G04 Step and Repeat for panelization *

G04 ----------------------- Draw board outline (positive)*
%LPD*%
G54D10*
G01X20600Y37800D02*
G01X37200Y37800D01*
G04 end of side 1*
G01X37200Y32800D01*
G04 end of side 2*
G01X31200Y32800D01*
G04 end of side 3*
G01X31200Y17000D01*
G04 end of side 4*
G01X20600Y17000D01*
G04 end of side 5*
G01X20600Y37800D01*

G04 -------------- Draw Parts, Pads, Traces, Vias and Text (positive)*
%LPD*%
G04 Draw part IC1*
G54D11*
G01X33000Y33700D03*
G54D12*
G01X32000Y33700D03*
G01X31000Y33700D03*
G01X30000Y33700D03*
G01X29000Y33700D03*
G01X28000Y33700D03*
G01X27000Y33700D03*
G01X26000Y33700D03*
G01X25000Y33700D03*
G01X24000Y33700D03*
G01X23000Y33700D03*
G01X22000Y33700D03*
G01X22000Y36700D03*
G01X23000Y36700D03*
G01X24000Y36700D03*
G01X25000Y36700D03*
G01X26000Y36700D03*
G01X27000Y36700D03*
G01X28000Y36700D03*
G01X29000Y36700D03*
G01X30000Y36700D03*
G01X31000Y36700D03*
G01X32000Y36700D03*
G01X33000Y36700D03*
G04 Draw part L1*
G54D13*
G01X22210Y30700D03*
G01X21500Y29990D03*
G04 Draw part L2*
G01X24310Y30700D03*
G01X23600Y29990D03*
G04 Draw part L3*
G01X26410Y30700D03*
G01X25700Y29990D03*
G04 Draw part L4*
G01X28510Y30700D03*
G01X27800Y29990D03*
G04 Draw part L5*
G01X30610Y30700D03*
G01X29900Y29990D03*
G04 Draw part L6*
G01X22210Y28600D03*
G01X21500Y27890D03*
G04 Draw part L7*
G01X24310Y28600D03*
G01X23600Y27890D03*
G04 Draw part L8*
G01X26410Y28600D03*
G01X25700Y27890D03*
G04 Draw part L9*
G01X28510Y28600D03*
G01X27800Y27890D03*
G04 Draw part L10*
G01X30610Y28600D03*
G01X29900Y27890D03*
G04 Draw part L11*
G01X22210Y26500D03*
G01X21500Y25790D03*
G04 Draw part L12*
G01X24310Y26500D03*
G01X23600Y25790D03*
G04 Draw part L13*
G01X26410Y26500D03*
G01X25700Y25790D03*
G04 Draw part L14*
G01X28510Y26500D03*
G01X27800Y25790D03*
G04 Draw part L15*
G01X30610Y26500D03*
G01X29900Y25790D03*
G04 Draw part L16*
G01X22210Y24500D03*
G01X21500Y23790D03*
G04 Draw part L17*
G01X24310Y24500D03*
G01X23600Y23790D03*
G04 Draw part L18*
G01X26410Y24500D03*
G01X25700Y23790D03*
G04 Draw part L19*
G01X28510Y24500D03*
G01X27800Y23790D03*
G04 Draw part L20*
G01X30610Y24500D03*
G01X29900Y23790D03*
G04 Draw part H1*
G54D14*
G01X25400Y19600D03*
G54D15*
G01X25400Y20600D03*
G01X24400Y19600D03*
G01X24400Y20600D03*
G01X23400Y19600D03*
G01X23400Y20600D03*
G01X22400Y19600D03*
G01X22400Y20600D03*
G01X21400Y19600D03*
G01X21400Y20600D03*
G04 Draw part C1*
G54D16*
G01X23500Y22100D03*
G01X21500Y22100D03*
G04 Draw part C2*
G01X26900Y22100D03*
G01X24900Y22100D03*
G04 Draw part R1*
G01X30200Y18200D03*
G01X30200Y22200D03*
G04 Draw part SW1*
G54D14*
G01X28600Y18200D03*
G54D15*
G01X27600Y18200D03*
G04 Draw part LED*
G54D14*
G01X36300Y36200D03*
G54D15*
G01X35300Y36200D03*
G01X36300Y35200D03*
G01X35300Y35200D03*
G01X36300Y34200D03*
G01X35300Y34200D03*

G04 Draw traces*

G04 Draw Text*

G04 Draw solder mask cutouts*
M00*
M02*
