;Holesize 1 =   32.0 PLATED MILS
;Holesize 2 =   30.0 PLATED MILS
;Holesize 3 =   40.0 PLATED MILS
;Holesize 4 =   45.0 PLATED MILS
;Holesize 5 =   28.0 PLATED MILS
M48
INCH,00.0000
T01C0.032
T02C0.030
T03C0.040
T04C0.045
T05C0.028
%
G05
G90
T01
X033000Y033700
X032000Y033700
X031000Y033700
X030000Y033700
X029000Y033700
X028000Y033700
X027000Y033700
X026000Y033700
X025000Y033700
X024000Y033700
X023000Y033700
X022000Y033700
X022000Y036700
X023000Y036700
X024000Y036700
X025000Y036700
X026000Y036700
X027000Y036700
X028000Y036700
X029000Y036700
X030000Y036700
X031000Y036700
X032000Y036700
X033000Y036700
T02
X022210Y030700
X021500Y029990
X024310Y030700
X023600Y029990
X026410Y030700
X025700Y029990
X028510Y030700
X027800Y029990
X030610Y030700
X029900Y029990
X022210Y028600
X021500Y027890
X024310Y028600
X023600Y027890
X026410Y028600
X025700Y027890
X028510Y028600
X027800Y027890
X030610Y028600
X029900Y027890
X022210Y026500
X021500Y025790
X024310Y026500
X023600Y025790
X026410Y026500
X025700Y025790
X028510Y026500
X027800Y025790
X030610Y026500
X029900Y025790
X022210Y024500
X021500Y023790
X024310Y024500
X023600Y023790
X026410Y024500
X025700Y023790
X028510Y024500
X027800Y023790
X030610Y024500
X029900Y023790
T03
X025400Y019600
X025400Y020600
X024400Y019600
X024400Y020600
X023400Y019600
X023400Y020600
X022400Y019600
X022400Y020600
X021400Y019600
X021400Y020600
X028600Y018200
X027600Y018200
X036300Y036200
X035300Y036200
X036300Y035200
X035300Y035200
X036300Y034200
X035300Y034200
T04
X023500Y022100
X021500Y022100
X026900Y022100
X024900Y022100
T05
X030200Y018200
X030200Y022200
M30
