G04 FreePCB version 1.359*
G04 Y:\Documents\R2D2 Build\PCB Files\RSeries Data Port\RSeries Data Port v3 CAM\bottom_copper.grb*
G04 bottom copper layer *
G04 Scale: 100 percent, Rotated: No, Reflected: No *
%FSLAX24Y24*%
%MOIN*%
%LN bottom copper *%
G04 Rounded Rectangle Macro, params: W/2, H/2, R *
%AMRNDREC*
21,1,$1+$1,$2+$2-$3-$3,0,0,0*
21,1,$1+$1-$3-$3,$2+$2,0,0,0*
1,1,$3+$3,$1-$3,$2-$3*
1,1,$3+$3,$3-$1,$2-$3*
1,1,$3+$3,$1-$3,$3-$2*
1,1,$3+$3,$3-$1,$3-$2*%
G04 Rectangular Thermal Macro, params: W/2, H/2, T/2 *
%AMRECTHERM*
$4=$3/2*
21,1,$1-$3,$2-$3,0-$1/2-$4,0-$2/2-$4,0*
21,1,$1-$3,$2-$3,0-$1/2-$4,$2/2+$4,0*
21,1,$1-$3,$2-$3,$1/2+$4,0-$2/2-$4,0*
21,1,$1-$3,$2-$3,$1/2+$4,$2/2+$4,0*%
%ADD10C,0.005000*%
%ADD11R,0.055000X0.055000*%
%ADD12C,0.055000*%
%ADD13C,0.050000*%
%ADD14R,0.060000X0.060000*%
%ADD15C,0.060000*%
%ADD16C,0.075000*%
%ADD17R,0.050000X0.050000*%
%ADD18C,0.010000*%
%ADD19C,0.028000*%
G90*
G70D02*

G04 Step and Repeat for panelization *

G04 ----------------------- Draw board outline (positive)*
%LPD*%
G54D10*
G01X3200Y4200D02*
G01X5000Y2400D01*
G04 end of side 1*
G01X21600Y2400D01*
G04 end of side 2*
G01X25000Y5800D01*
G04 end of side 3*
G01X25000Y50200D01*
G04 end of side 4*
G01X23200Y52000D01*
G04 end of side 5*
G01X2000Y52000D01*
G04 end of side 6*
G01X200Y50200D01*
G04 end of side 7*
G01X200Y38000D01*
G04 end of side 8*
G01X2200Y36000D01*
G04 end of side 9*
G01X15000Y36000D01*
G04 end of side 10*
G01X16800Y34200D01*
G04 end of side 11*
G01X16800Y13800D01*
G04 end of side 12*
G01X15000Y12000D01*
G04 end of side 13*
G01X4000Y12000D01*
G04 end of side 14*
G01X3200Y11200D01*
G04 end of side 15*
G01X3200Y4200D01*

G04 -------------- Draw Parts, Pads, Traces, Vias and Text (positive)*
%LPD*%
G04 Draw part IC1*
G54D11*
G01X24000Y7100D03*
G54D12*
G01X23000Y7100D03*
G01X22000Y7100D03*
G01X21000Y7100D03*
G01X20000Y7100D03*
G01X19000Y7100D03*
G01X18000Y7100D03*
G01X17000Y7100D03*
G01X16000Y7100D03*
G01X15000Y7100D03*
G01X14000Y7100D03*
G01X13000Y7100D03*
G01X13000Y10100D03*
G01X14000Y10100D03*
G01X15000Y10100D03*
G01X16000Y10100D03*
G01X17000Y10100D03*
G01X18000Y10100D03*
G01X19000Y10100D03*
G01X20000Y10100D03*
G01X21000Y10100D03*
G01X22000Y10100D03*
G01X23000Y10100D03*
G01X24000Y10100D03*
G04 Draw part L1*
G54D13*
G01X18710Y49000D03*
G01X18000Y48290D03*
G04 Draw part L11*
G01X5310Y11000D03*
G01X4600Y10290D03*
G04 Draw part L12*
G01X8110Y11000D03*
G01X7400Y10290D03*
G04 Draw part L13*
G01X11110Y11000D03*
G01X10400Y10290D03*
G04 Draw part L14*
G01X5310Y5000D03*
G01X4600Y4290D03*
G04 Draw part L15*
G01X8110Y5000D03*
G01X7400Y4290D03*
G04 Draw part L16*
G01X11110Y5000D03*
G01X10400Y4290D03*
G04 Draw part H1*
G54D14*
G01X21000Y4850D03*
G54D15*
G01X21000Y5850D03*
G01X20000Y4850D03*
G01X20000Y5850D03*
G01X19000Y4850D03*
G01X19000Y5850D03*
G01X18000Y4850D03*
G01X18000Y5850D03*
G01X17000Y4850D03*
G01X17000Y5850D03*
G04 Draw part C1*
G54D16*
G01X15500Y5800D03*
G01X13500Y5800D03*
G04 Draw part C2*
G01X15500Y4300D03*
G01X13500Y4300D03*
G04 Draw part R1*
G01X22300Y11500D03*
G01X18300Y11500D03*
G04 Draw part L2*
G54D13*
G01X18710Y45800D03*
G01X18000Y45090D03*
G04 Draw part L3*
G01X18710Y42600D03*
G01X18000Y41890D03*
G04 Draw part L4*
G01X18710Y39200D03*
G01X18000Y38490D03*
G04 Draw part L5*
G01X18710Y36000D03*
G01X18000Y35290D03*
G04 Draw part L6*
G01X18710Y32700D03*
G01X18000Y31990D03*
G04 Draw part L17*
G01X19710Y24000D03*
G01X19000Y23290D03*
G04 Draw part L18*
G01X24110Y24000D03*
G01X23400Y23290D03*
G04 Draw part LB1*
G54D17*
G01X20700Y48000D03*
G54D13*
G01X20700Y50000D03*
G01X21700Y50000D03*
G01X22700Y48000D03*
G01X22700Y50000D03*
G04 Draw part LB2*
G54D17*
G01X20700Y44600D03*
G54D13*
G01X20700Y46600D03*
G01X21700Y46600D03*
G01X22700Y44600D03*
G01X22700Y46600D03*
G04 Draw part LB3*
G54D17*
G01X20700Y41400D03*
G54D13*
G01X20700Y43400D03*
G01X21700Y43400D03*
G01X22700Y41400D03*
G01X22700Y43400D03*
G04 Draw part LB4*
G54D17*
G01X20600Y38200D03*
G54D13*
G01X20600Y40200D03*
G01X21600Y40200D03*
G01X22600Y38200D03*
G01X22600Y40200D03*
G04 Draw part LB5*
G54D17*
G01X20600Y34800D03*
G54D13*
G01X20600Y36800D03*
G01X21600Y36800D03*
G01X22600Y34800D03*
G01X22600Y36800D03*
G04 Draw part LB6*
G54D17*
G01X20600Y31200D03*
G54D13*
G01X20600Y33200D03*
G01X21600Y33200D03*
G01X22600Y31200D03*
G01X22600Y33200D03*
G04 Draw part LB7*
G54D17*
G01X4200Y48800D03*
G54D13*
G01X2200Y48800D03*
G01X2200Y49800D03*
G01X4200Y50800D03*
G01X2200Y50800D03*
G04 Draw part LB8*
G54D17*
G01X7200Y48800D03*
G54D13*
G01X5200Y48800D03*
G01X5200Y49800D03*
G01X7200Y50800D03*
G01X5200Y50800D03*
G04 Draw part LB9*
G54D17*
G01X10200Y48800D03*
G54D13*
G01X8200Y48800D03*
G01X8200Y49800D03*
G01X10200Y50800D03*
G01X8200Y50800D03*
G04 Draw part LB10*
G54D17*
G01X4200Y38000D03*
G54D13*
G01X2200Y38000D03*
G01X2200Y39000D03*
G01X4200Y40000D03*
G01X2200Y40000D03*
G04 Draw part LB11*
G54D17*
G01X7200Y38000D03*
G54D13*
G01X5200Y38000D03*
G01X5200Y39000D03*
G01X7200Y40000D03*
G01X5200Y40000D03*
G04 Draw part LB12*
G54D17*
G01X10200Y38000D03*
G54D13*
G01X8200Y38000D03*
G01X8200Y39000D03*
G01X10200Y40000D03*
G01X8200Y40000D03*

G04 Draw traces*
G54D18*
G01X17000Y4850D02*
G01X17500Y5350D01*
G01X17500Y5350D02*
G01X21931Y5350D01*
G01X21931Y5350D02*
G01X23574Y6993D01*
G01X23574Y6993D02*
G01X23574Y7100D01*
G01X23574Y7100D02*
G01X24000Y7100D01*
G01X5200Y48800D02*
G01X8200Y45800D01*
G01X8200Y45800D02*
G01X18710Y45800D01*
G01X22700Y44600D02*
G01X20700Y46600D01*
G01X5310Y11000D02*
G01X7400Y11000D01*
G01X7400Y11000D02*
G01X7806Y10593D01*
G01X7806Y10593D02*
G01X9993Y10593D01*
G01X9993Y10593D02*
G01X10109Y10709D01*
G01X10109Y10709D02*
G01X10546Y10709D01*
G01X10546Y10709D02*
G01X11581Y9674D01*
G01X11581Y9674D02*
G01X19234Y9674D01*
G01X19234Y9674D02*
G01X19500Y9940D01*
G01X19500Y9940D02*
G01X19500Y10211D01*
G01X19500Y10211D02*
G01X20143Y10854D01*
G01X20143Y10854D02*
G01X21245Y10854D01*
G01X21245Y10854D02*
G01X22000Y10100D01*
G01X22700Y48000D02*
G01X20700Y50000D01*
G01X22300Y11500D02*
G01X20400Y11500D01*
G01X20400Y11500D02*
G01X19000Y10100D01*
G01X19000Y4850D02*
G01X18534Y4384D01*
G01X18534Y4384D02*
G01X16416Y4384D01*
G01X16416Y4384D02*
G01X15940Y4860D01*
G01X15940Y4860D02*
G01X13691Y4860D01*
G01X13691Y4860D02*
G01X12931Y5620D01*
G01X12931Y5620D02*
G01X12931Y7031D01*
G01X12931Y7031D02*
G01X13000Y7100D01*
G01X11110Y11000D02*
G01X15100Y11000D01*
G01X15100Y11000D02*
G01X16000Y10100D01*
G01X20700Y43400D02*
G01X19900Y42600D01*
G01X19900Y42600D02*
G01X18710Y42600D01*
G01X8200Y48800D02*
G01X10758Y46241D01*
G01X10758Y46241D02*
G01X18871Y46241D01*
G01X18871Y46241D02*
G01X19900Y45213D01*
G01X19900Y45213D02*
G01X19900Y44199D01*
G01X19900Y44199D02*
G01X20700Y43400D01*
G01X11110Y5000D02*
G01X11110Y5814D01*
G01X11110Y5814D02*
G01X13389Y8094D01*
G01X13389Y8094D02*
G01X18994Y8094D01*
G01X18994Y8094D02*
G01X21000Y10100D01*
G01X4200Y40000D02*
G01X4617Y40417D01*
G01X4617Y40417D02*
G01X5763Y40417D01*
G01X5763Y40417D02*
G01X6581Y39599D01*
G01X6581Y39599D02*
G01X7380Y39599D01*
G01X7380Y39599D02*
G01X7700Y39919D01*
G01X7700Y39919D02*
G01X7700Y40068D01*
G01X7700Y40068D02*
G01X8050Y40419D01*
G01X8050Y40419D02*
G01X8440Y40419D01*
G01X8440Y40419D02*
G01X9968Y38891D01*
G01X9968Y38891D02*
G01X12518Y38891D01*
G01X12518Y38891D02*
G01X18710Y32700D01*
G01X20600Y33200D02*
G01X20100Y32700D01*
G01X20100Y32700D02*
G01X18710Y32700D01*
G01X22600Y31200D02*
G01X20600Y33200D01*
G01X5310Y5000D02*
G01X9784Y9474D01*
G01X9784Y9474D02*
G01X19374Y9474D01*
G01X19374Y9474D02*
G01X20000Y10100D01*
G01X10200Y40000D02*
G01X17910Y40000D01*
G01X17910Y40000D02*
G01X18710Y39200D01*
G01X8110Y5000D02*
G01X12384Y9274D01*
G01X12384Y9274D02*
G01X19811Y9274D01*
G01X19811Y9274D02*
G01X20434Y9896D01*
G01X20434Y9896D02*
G01X20434Y10135D01*
G01X20434Y10135D02*
G01X20904Y10605D01*
G01X20904Y10605D02*
G01X21122Y10605D01*
G01X21122Y10605D02*
G01X21500Y10227D01*
G01X21500Y10227D02*
G01X21500Y9950D01*
G01X21500Y9950D02*
G01X21775Y9674D01*
G01X21775Y9674D02*
G01X22574Y9674D01*
G01X22574Y9674D02*
G01X23000Y10100D01*
G01X7200Y40000D02*
G01X7819Y40619D01*
G01X7819Y40619D02*
G01X8817Y40619D01*
G01X8817Y40619D02*
G01X10344Y39091D01*
G01X10344Y39091D02*
G01X15618Y39091D01*
G01X15618Y39091D02*
G01X18710Y36000D01*
G01X20600Y36800D02*
G01X19800Y36000D01*
G01X19800Y36000D02*
G01X18710Y36000D01*
G01X24110Y24000D02*
G01X24110Y23396D01*
G01X24110Y23396D02*
G01X23590Y22877D01*
G01X23590Y22877D02*
G01X20832Y22877D01*
G01X20832Y22877D02*
G01X19710Y24000D01*
G54D19*
G01X17484Y23087D03*
G54D18*
G01X17484Y23087D02*
G01X24440Y16131D01*
G01X24440Y16131D02*
G01X24440Y9540D01*
G01X24440Y9540D02*
G01X22000Y7100D01*
G01X7200Y48800D02*
G01X7600Y48800D01*
G01X7600Y48800D02*
G01X7600Y49000D01*
G01X7600Y49000D02*
G01X7799Y49200D01*
G01X7799Y49200D02*
G01X7799Y50399D01*
G01X7799Y50399D02*
G01X5600Y50399D01*
G01X5600Y50399D02*
G01X5494Y50506D01*
G01X5494Y50506D02*
G01X5493Y50506D01*
G01X5493Y50506D02*
G01X5417Y50583D01*
G01X5417Y50583D02*
G01X4200Y49365D01*
G01X4200Y49365D02*
G01X4200Y49200D01*
G01X4200Y49200D02*
G01X4200Y48800D01*
G01X8200Y50800D02*
G01X7799Y50399D01*
G01X5200Y50800D02*
G01X5417Y50583D01*
G01X2200Y50800D02*
G01X3799Y49200D01*
G01X3799Y49200D02*
G01X4200Y49200D01*
G01X10200Y48800D02*
G01X9799Y48800D01*
G01X9799Y48800D02*
G01X9399Y49200D01*
G01X9399Y49200D02*
G01X7799Y49200D01*
G01X7200Y38000D02*
G01X7600Y38000D01*
G01X7600Y38000D02*
G01X8150Y38550D01*
G01X8150Y38550D02*
G01X8600Y38550D01*
G01X8600Y38550D02*
G01X9249Y38550D01*
G01X9249Y38550D02*
G01X9799Y38000D01*
G01X9799Y38000D02*
G01X10200Y38000D01*
G01X4200Y38000D02*
G01X4600Y38000D01*
G01X4600Y38000D02*
G01X5100Y38500D01*
G01X5100Y38500D02*
G01X5604Y38500D01*
G01X5604Y38500D02*
G01X6299Y38500D01*
G01X6299Y38500D02*
G01X6799Y38000D01*
G01X6799Y38000D02*
G01X7200Y38000D01*
G01X5200Y40000D02*
G01X5604Y39595D01*
G01X5604Y39595D02*
G01X5604Y38500D01*
G01X8200Y40000D02*
G01X8600Y39599D01*
G01X8600Y39599D02*
G01X8600Y38550D01*
G01X16000Y7100D02*
G01X16425Y7525D01*
G01X16425Y7525D02*
G01X20574Y7525D01*
G01X20574Y7525D02*
G01X21000Y7100D01*
G01X13500Y5800D02*
G01X14700Y5800D01*
G01X14700Y5800D02*
G01X16000Y7100D01*
G01X17000Y5850D02*
G01X17642Y6492D01*
G01X17642Y6492D02*
G01X20999Y6492D01*
G01X20999Y6492D02*
G01X21500Y6992D01*
G01X21500Y6992D02*
G01X21500Y7600D01*
G01X21500Y7600D02*
G01X24000Y10100D01*
G01X18000Y31990D02*
G01X18000Y23587D01*
G01X18000Y23587D02*
G01X24641Y16946D01*
G01X24641Y16946D02*
G01X24641Y8741D01*
G01X24641Y8741D02*
G01X23000Y7100D01*
G01X7400Y10290D02*
G01X4600Y10290D01*
G01X10400Y10290D02*
G01X7400Y10290D01*
G01X7400Y4290D02*
G01X4600Y4290D01*
G01X10400Y4290D02*
G01X7400Y4290D01*
G01X20600Y34800D02*
G01X20600Y35200D01*
G01X20600Y35200D02*
G01X21000Y35600D01*
G01X21000Y35600D02*
G01X21000Y37399D01*
G01X21000Y37399D02*
G01X20600Y37799D01*
G01X20600Y37799D02*
G01X20600Y38200D01*
G01X19000Y23290D02*
G01X19000Y29199D01*
G01X19000Y29199D02*
G01X20600Y30799D01*
G01X20600Y30799D02*
G01X20600Y31200D01*
G01X22600Y33200D02*
G01X23400Y32400D01*
G01X23400Y32400D02*
G01X23400Y23290D01*
G01X22600Y36800D02*
G01X22150Y36350D01*
G01X22150Y36350D02*
G01X22150Y33649D01*
G01X22150Y33649D02*
G01X22600Y33200D01*
G01X22700Y43400D02*
G01X22278Y42978D01*
G01X22278Y42978D02*
G01X22278Y40521D01*
G01X22278Y40521D02*
G01X22600Y40200D01*
G01X22700Y46600D02*
G01X23100Y46199D01*
G01X23100Y46199D02*
G01X23100Y43800D01*
G01X23100Y43800D02*
G01X22700Y43400D01*
G01X22700Y50000D02*
G01X23114Y49585D01*
G01X23114Y49585D02*
G01X23114Y47014D01*
G01X23114Y47014D02*
G01X22700Y46600D01*

G04 Draw Text*
M00*
M02*
