;Holesize 1 =   28.0 PLATED MILS
;Holesize 2 =   30.0 PLATED MILS
;Holesize 3 =   40.0 PLATED MILS
;Holesize 4 =   45.0 PLATED MILS
;Holesize 5 =   14.0 PLATED MILS
M48
INCH,00.0000
T01C0.028
T02C0.030
T03C0.040
T04C0.045
T05C0.014
%
G05
G90
T01
X024000Y007100
X023000Y007100
X022000Y007100
X021000Y007100
X020000Y007100
X019000Y007100
X018000Y007100
X017000Y007100
X016000Y007100
X015000Y007100
X014000Y007100
X013000Y007100
X013000Y010100
X014000Y010100
X015000Y010100
X016000Y010100
X017000Y010100
X018000Y010100
X019000Y010100
X020000Y010100
X021000Y010100
X022000Y010100
X023000Y010100
X024000Y010100
X022300Y011500
X018300Y011500
X020700Y048000
X020700Y050000
X021700Y050000
X022700Y048000
X022700Y050000
X020700Y044600
X020700Y046600
X021700Y046600
X022700Y044600
X022700Y046600
X020700Y041400
X020700Y043400
X021700Y043400
X022700Y041400
X022700Y043400
X020600Y038200
X020600Y040200
X021600Y040200
X022600Y038200
X022600Y040200
X020600Y034800
X020600Y036800
X021600Y036800
X022600Y034800
X022600Y036800
X020600Y031200
X020600Y033200
X021600Y033200
X022600Y031200
X022600Y033200
X004200Y048800
X002200Y048800
X002200Y049800
X004200Y050800
X002200Y050800
X007200Y048800
X005200Y048800
X005200Y049800
X007200Y050800
X005200Y050800
X010200Y048800
X008200Y048800
X008200Y049800
X010200Y050800
X008200Y050800
X004200Y038000
X002200Y038000
X002200Y039000
X004200Y040000
X002200Y040000
X007200Y038000
X005200Y038000
X005200Y039000
X007200Y040000
X005200Y040000
X010200Y038000
X008200Y038000
X008200Y039000
X010200Y040000
X008200Y040000
T02
X018710Y049000
X018000Y048290
X005310Y011000
X004600Y010290
X008110Y011000
X007400Y010290
X011110Y011000
X010400Y010290
X005310Y005000
X004600Y004290
X008110Y005000
X007400Y004290
X011110Y005000
X010400Y004290
X018710Y045800
X018000Y045090
X018710Y042600
X018000Y041890
X018710Y039200
X018000Y038490
X018710Y036000
X018000Y035290
X018710Y032700
X018000Y031990
X019710Y024000
X019000Y023290
X024110Y024000
X023400Y023290
T03
X021000Y004850
X021000Y005850
X020000Y004850
X020000Y005850
X019000Y004850
X019000Y005850
X018000Y004850
X018000Y005850
X017000Y004850
X017000Y005850
T04
X015500Y005800
X013500Y005800
X015500Y004300
X013500Y004300
T05
X017484Y023087
M30
